<svg width="147" height="113" viewBox="0 0 147 113" fill="none" xmlns="http://www.w3.org/2000/svg">
<path d="M38.7644 62.4071C38.3517 62.4071 37.9547 62.3176 37.5731 62.1387C37.1916 61.9598 36.8646 61.6291 36.5921 61.1467H36.4986C36.4986 61.6058 36.487 62.0842 36.4636 62.5822C36.4402 63.0801 36.3974 63.5586 36.3351 64.0176C36.2105 65.099 35.9925 66.091 35.6811 66.9934C35.3774 67.9037 35.0037 68.7245 34.5599 69.4558C34.1238 70.1871 33.6333 70.829 33.0883 71.3814C32.5433 71.9415 31.9671 72.4083 31.3598 72.7818C30.7602 73.1552 30.1412 73.4353 29.5027 73.622C28.8721 73.8165 28.2531 73.9138 27.6457 73.9138C26.7815 73.9138 26.0106 73.7426 25.3332 73.4003C24.6636 73.0658 24.0991 72.6028 23.6398 72.0116C23.1804 71.4203 22.83 70.724 22.5886 69.9226C22.3472 69.1213 22.2266 68.2577 22.2266 67.3319C22.2266 67.114 22.2343 66.8417 22.2499 66.515C22.2655 66.196 22.3083 65.8381 22.3784 65.4413C22.4485 65.0523 22.5497 64.6322 22.6821 64.181C22.8144 63.7297 23.0013 63.2668 23.2427 62.7922C23.484 62.3099 23.7838 61.8236 24.142 61.3335C24.5001 60.8433 24.9362 60.361 25.45 59.8864C26.1586 59.2406 26.8905 58.696 27.6457 58.2526C28.401 57.8013 29.1446 57.424 29.8765 57.1206C30.6084 56.8172 31.313 56.5721 31.9904 56.3854C32.6678 56.1909 33.2907 56.0275 33.8591 55.8952C33.9292 55.8952 33.9993 55.9069 34.0693 55.9302C34.1472 55.9536 34.1861 55.9886 34.1861 56.0353C34.1861 56.0742 34.1667 56.117 34.1277 56.1636C34.0966 56.2103 34.046 56.2453 33.9759 56.2687C33.1116 56.541 32.3175 56.8133 31.5933 57.0856C30.877 57.3579 30.2191 57.6379 29.6195 57.9258C29.0278 58.2137 28.4828 58.5132 27.9844 58.8244C27.4939 59.1278 27.0462 59.4507 26.6413 59.793C26.0652 60.2754 25.5785 60.7772 25.1814 61.2985C24.7843 61.8119 24.4573 62.3293 24.2004 62.8506C23.9512 63.3718 23.7682 63.8892 23.6514 64.4027C23.5424 64.9162 23.4879 65.4102 23.4879 65.8848C23.4879 66.6861 23.6008 67.3708 23.8266 67.9387C24.0524 68.5144 24.3561 68.9851 24.7376 69.3508C25.1191 69.7242 25.5629 69.9965 26.069 70.1677C26.5751 70.3466 27.1085 70.4361 27.6691 70.4361C28.4088 70.4361 29.1173 70.2961 29.7947 70.016C30.4799 69.7437 31.1184 69.3741 31.7101 68.9073C32.3019 68.4405 32.8391 67.8998 33.3219 67.2852C33.8124 66.6706 34.229 66.0287 34.5716 65.3596C34.9141 64.6905 35.1789 64.0137 35.3657 63.329C35.5604 62.6366 35.6577 61.9792 35.6577 61.3568C35.6577 60.9445 35.6032 60.4504 35.4942 59.8747C35.393 59.2912 35.2645 58.6649 35.1088 57.9958C34.9531 57.3267 34.7857 56.6343 34.6066 55.9186C34.4275 55.2028 34.2601 54.5065 34.1044 53.8296C33.9487 53.145 33.8163 52.4992 33.7073 51.8924C33.6061 51.2856 33.5555 50.7526 33.5555 50.2936C33.5555 49.8968 33.6411 49.4222 33.8124 48.8699C33.9915 48.3175 34.2796 47.6717 34.6767 46.9326L34.7935 47.0026C34.7779 47.0727 34.7701 47.1544 34.7701 47.2477C34.7701 47.3411 34.7701 47.4305 34.7701 47.5161C34.7701 47.9907 34.8168 48.547 34.9103 49.1849C35.0037 49.8229 35.1322 50.5231 35.2957 51.2856C35.4592 52.0402 35.646 52.8454 35.8563 53.7013C36.0665 54.5571 36.2884 55.4362 36.522 56.3387C36.7556 57.2412 37.0125 58.0192 37.2928 58.6727C37.5809 59.3262 37.8768 59.8397 38.1805 60.2131C38.3907 60.4854 38.5386 60.8005 38.6243 61.1584C38.7177 61.5163 38.7644 61.8547 38.7644 62.1737V62.4071Z" fill="white"/>
<path d="M35.0971 52.7356C35.3307 53.0079 35.5137 53.2646 35.646 53.5058C35.7784 53.7392 35.868 53.9571 35.9147 54.1593C35.938 54.2605 35.977 54.4239 36.0315 54.6495C36.086 54.8751 36.1522 55.1357 36.23 55.4314C36.3079 55.727 36.3935 56.046 36.487 56.3883C36.5804 56.7306 36.6777 57.0691 36.7789 57.4036C36.9736 58.0727 37.1877 58.6406 37.4213 59.1074C37.6549 59.582 37.9196 59.9632 38.2155 60.2511C38.5114 60.5467 38.8462 60.7607 39.2199 60.893C39.6014 61.0252 40.0336 61.0913 40.5163 61.0913C40.8122 61.0913 41.1236 61.0252 41.4506 60.893C41.7855 60.7607 42.1125 60.5779 42.4317 60.3445C42.7587 60.1111 43.0702 59.8271 43.366 59.4925C43.6619 59.1658 43.9267 58.804 44.1602 58.4072C44.3315 58.1272 44.4989 57.8043 44.6624 57.4386C44.8182 57.0652 44.9739 56.7112 45.1296 56.3766C45.2931 56.0421 45.4566 55.762 45.6201 55.5364C45.7914 55.303 45.9666 55.1863 46.1457 55.1863C46.2703 55.1863 46.3871 55.233 46.4961 55.3263C46.6129 55.4119 46.753 55.5325 46.9165 55.6881C47.0801 55.8515 47.2825 56.0421 47.5239 56.2599C47.7652 56.4778 48.0689 56.719 48.4349 56.9835C48.9721 57.3569 49.3536 57.7226 49.5794 58.0805C49.813 58.4461 49.9298 58.804 49.9298 59.1541V59.4575C49.7429 59.5898 49.5444 59.6793 49.3342 59.726C49.1317 59.7804 48.9254 59.8076 48.7152 59.8076C48.466 59.8076 48.2285 59.7571 48.0027 59.6559C47.7769 59.5548 47.5589 59.442 47.3487 59.3175C47.1307 59.193 46.9165 59.0802 46.7063 58.9791C46.5039 58.8779 46.3014 58.8274 46.099 58.8274C45.9588 58.8274 45.8343 58.8974 45.7253 59.0374C45.6163 59.1852 45.5072 59.3759 45.3982 59.6093C45.2892 59.8504 45.1763 60.1266 45.0595 60.4378C44.935 60.7412 44.7909 61.0563 44.6274 61.3831C44.4717 61.7099 44.2848 62.0327 44.0668 62.3517C43.8488 62.6785 43.5918 62.9741 43.296 63.2386C42.8366 63.651 42.3577 63.9505 41.8594 64.1372C41.3611 64.3317 40.8355 64.429 40.2827 64.429C39.8 64.429 39.3367 64.3356 38.8929 64.1489C38.4491 63.9622 38.0325 63.6821 37.6432 63.3087C37.2617 62.9352 36.9074 62.4606 36.5804 61.8849C36.2612 61.317 35.9847 60.6479 35.7512 59.8777C35.5954 59.3486 35.4514 58.8118 35.319 58.2672C35.1867 57.7304 35.0738 57.2286 34.9803 56.7618C34.8869 56.295 34.8129 55.8865 34.7584 55.5364C34.7039 55.1863 34.6767 54.9373 34.6767 54.7895C34.6767 54.4239 34.7 54.066 34.7467 53.7159C34.7935 53.3658 34.8635 53.039 34.957 52.7356H35.0971Z" fill="white"/>
<path d="M59.39 52.5591C59.5535 52.598 59.717 52.6214 59.8805 52.6292C60.0441 52.6292 60.2076 52.6292 60.3711 52.6292C60.8382 52.6292 61.3249 52.5514 61.831 52.3958C62.3449 52.2324 62.8626 51.999 63.3843 51.6956C63.906 51.3844 64.4199 51.0031 64.926 50.5519C65.4399 50.1007 65.9304 49.5794 66.3976 48.9881C66.5066 48.8403 66.6078 48.6886 66.7012 48.533C66.7947 48.3774 66.8725 48.2296 66.9348 48.0895C67.0049 47.9417 67.0555 47.8094 67.0867 47.6927C67.1256 47.5683 67.1451 47.4632 67.1451 47.3776C67.1451 47.1909 67.1022 46.9964 67.0166 46.7941C66.9387 46.5919 66.8141 46.409 66.6428 46.2456C66.4793 46.0823 66.2691 45.9461 66.0122 45.8372C65.7552 45.7283 65.4554 45.6738 65.1129 45.6738C64.4822 45.6738 63.8904 45.8333 63.3376 46.1523C62.7926 46.4635 62.2826 46.9108 61.8076 47.4943C61.3327 48.0778 60.8889 48.7897 60.4762 49.63C60.0713 50.4702 59.6937 51.4155 59.3433 52.4658L59.39 52.5591ZM46.7764 55.43C47.1657 55.8423 47.5823 56.1574 48.0261 56.3752C48.4621 56.5853 48.9254 56.6903 49.4159 56.6903C49.922 56.6903 50.4515 56.5542 51.0043 56.2819C51.5571 56.0096 52.1333 55.5622 52.7328 54.9398C53.0209 54.6442 53.274 54.3369 53.492 54.0179C53.71 53.6989 53.9008 53.3877 54.0643 53.0843C54.2356 52.7731 54.3874 52.4775 54.5198 52.1974C54.6443 51.9173 54.765 51.6761 54.8818 51.4738C55.0064 51.2638 55.1271 51.0965 55.2439 50.972C55.3684 50.8475 55.5047 50.7853 55.6526 50.7853C55.8084 50.7853 55.9758 50.867 56.1549 51.0304C56.3339 51.1937 56.5286 51.3727 56.7388 51.5672C56.9413 51.7695 57.1593 51.9601 57.3929 52.139C57.6264 52.3102 57.8795 52.4113 58.152 52.4424L58.2454 52.3958C58.588 51.042 59.0007 49.7895 59.4834 48.638C59.9662 47.4788 60.5034 46.4752 61.0952 45.6271C61.6947 44.7791 62.3449 44.1178 63.0456 43.6432C63.7542 43.1609 64.5055 42.9197 65.2997 42.9197C65.689 42.9197 66.0472 42.9858 66.3742 43.1181C66.709 43.2426 66.9932 43.4293 67.2268 43.6782C67.4682 43.9194 67.655 44.2151 67.7874 44.5652C67.9198 44.9153 67.986 45.3159 67.986 45.7672C67.986 46.1173 67.9626 46.4479 67.9159 46.7591C67.8614 47.0781 67.8147 47.3854 67.7757 47.6811C67.7134 48.1401 67.6434 48.5563 67.5655 48.9298C67.4876 49.2954 67.4059 49.6261 67.3202 49.9217C67.2346 50.2174 67.1451 50.4858 67.0516 50.7269C66.9582 50.9603 66.8647 51.1743 66.7713 51.3688C66.4521 51.9445 66.0978 52.4541 65.7085 52.8976C65.3192 53.341 64.9143 53.73 64.4939 54.0646C64.0812 54.3991 63.6568 54.6831 63.2208 54.9165C62.7926 55.1499 62.376 55.3405 61.9711 55.4883C61.574 55.6284 61.2003 55.7334 60.8499 55.8034C60.4995 55.8657 60.192 55.8968 59.9273 55.8968C59.4679 55.8968 59.0669 55.8579 58.7243 55.7801C58.3895 55.7023 58.0936 55.605 57.8367 55.4883C57.5797 55.3716 57.3539 55.2471 57.1593 55.1149C56.9724 54.9826 56.8011 54.8581 56.6454 54.7414C56.4897 54.6247 56.3378 54.5275 56.1899 54.4497C56.042 54.3719 55.8862 54.333 55.7227 54.333C55.5592 54.333 55.4152 54.3952 55.2906 54.5197C55.166 54.6442 55.0453 54.8115 54.9285 55.0215C54.8195 55.2238 54.7027 55.4572 54.5782 55.7217C54.4536 55.994 54.3134 56.278 54.1577 56.5736C54.0098 56.8615 53.8385 57.1533 53.6438 57.4489C53.4492 57.7445 53.2156 58.0207 52.9431 58.2775C52.4058 58.7909 51.8452 59.1644 51.2612 59.3978C50.6851 59.6312 50.0544 59.7479 49.3692 59.7479C48.9098 59.7479 48.4816 59.6662 48.0845 59.5028C47.6874 59.3394 47.3448 59.1294 47.0567 58.8726C46.7608 58.6237 46.5311 58.3475 46.3676 58.0441C46.2041 57.7406 46.1224 57.445 46.1224 57.1571C46.1224 56.9549 46.1652 56.7137 46.2508 56.4336C46.3365 56.1535 46.4727 55.819 46.6596 55.43H46.7764Z" fill="white"/>
<path d="M70.6722 46.6525C70.8357 46.1857 71.0031 45.7112 71.1744 45.2288C71.3379 44.7464 71.5209 44.2407 71.7233 43.7117H71.8168C72.4163 45.0654 72.9263 46.4347 73.3467 47.8195C73.775 49.2044 74.1293 50.6204 74.4096 52.0674C74.6821 53.5145 74.9857 54.8721 75.3205 56.1403C75.6631 57.4007 76.0213 58.5171 76.395 59.4896L76.1614 60.4699C75.9824 60.4699 75.7877 60.4037 75.5775 60.2715C75.3673 60.1314 75.1454 59.8747 74.9118 59.5013C74.6782 59.12 74.4407 58.5988 74.1993 57.9375C73.9657 57.2684 73.7399 56.4009 73.5219 55.3351C73.265 54.1136 72.899 52.7832 72.4241 51.3439C71.9491 49.9046 71.3652 48.3408 70.6722 46.6525Z" fill="white"/>
<path d="M73.7789 52.0983C74.0125 52.3706 74.1954 52.6273 74.3278 52.8685C74.4602 53.1019 74.5497 53.3197 74.5964 53.522C74.6198 53.6231 74.6587 53.7865 74.7132 54.0121C74.7677 54.2378 74.8339 54.4984 74.9118 54.794C74.9896 55.0897 75.0753 55.4087 75.1687 55.751C75.2621 56.0933 75.3595 56.4317 75.4607 56.7663C75.6553 57.4354 75.8695 58.0033 76.1031 58.4701C76.3366 58.9447 76.6014 59.3259 76.8972 59.6138C77.1931 59.9094 77.5279 60.1234 77.9017 60.2556C78.2832 60.3879 78.7153 60.454 79.1981 60.454C79.4939 60.454 79.8054 60.3879 80.1324 60.2556C80.4672 60.1234 80.7942 59.9405 81.1135 59.7071C81.4405 59.4737 81.7519 59.1898 82.0478 58.8552C82.3437 58.5285 82.6084 58.1667 82.842 57.7699C83.0133 57.4898 83.1807 57.1669 83.3442 56.8013C83.4999 56.4278 83.6556 56.0738 83.8114 55.7393C83.9749 55.4048 84.1384 55.1247 84.3019 54.8991C84.4732 54.6657 84.6484 54.549 84.8275 54.549C84.9521 54.549 85.0688 54.5956 85.1778 54.689C85.2946 54.7746 85.4348 54.8952 85.5983 55.0508C85.7618 55.2142 85.9643 55.4048 86.2056 55.6226C86.447 55.8404 86.7507 56.0816 87.1166 56.3462C87.6539 56.7196 88.0354 57.0853 88.2612 57.4431C88.4948 57.8088 88.6116 58.1667 88.6116 58.5168V58.8202C88.4247 58.9525 88.2261 59.0419 88.0159 59.0886C87.8135 59.1431 87.6071 59.1703 87.3969 59.1703C87.1478 59.1703 86.9103 59.1197 86.6845 59.0186C86.4587 58.9175 86.2407 58.8046 86.0304 58.6802C85.8124 58.5557 85.5983 58.4429 85.3881 58.3417C85.1856 58.2406 84.9832 58.19 84.7808 58.19C84.6406 58.19 84.516 58.26 84.407 58.4001C84.298 58.5479 84.189 58.7385 84.08 58.9719C83.971 59.2131 83.8581 59.4893 83.7413 59.8005C83.6167 60.1039 83.4727 60.419 83.3092 60.7458C83.1534 61.0725 82.9666 61.3954 82.7486 61.7144C82.5305 62.0411 82.2736 62.3368 81.9777 62.6013C81.5183 63.0136 81.0395 63.3132 80.5412 63.4999C80.0429 63.6944 79.5173 63.7916 78.9645 63.7916C78.4817 63.7916 78.0185 63.6983 77.5746 63.5116C77.1308 63.3248 76.7143 63.0448 76.325 62.6713C75.9434 62.2979 75.5892 61.8233 75.2621 61.2476C74.9429 60.6796 74.6665 60.0105 74.4329 59.2403C74.2772 58.7113 74.1331 58.1745 74.0008 57.6299C73.8684 57.093 73.7555 56.5912 73.6621 56.1244C73.5687 55.6576 73.4947 55.2492 73.4402 54.8991C73.3857 54.549 73.3584 54.3 73.3584 54.1522C73.3584 53.7865 73.3818 53.4286 73.4285 53.0785C73.4752 52.7284 73.5453 52.4017 73.6387 52.0983H73.7789Z" fill="white"/>
<path d="M87.7706 56.189C88.2612 56.189 88.7556 56.0762 89.2539 55.8506C89.76 55.6249 90.27 55.2554 90.7839 54.7419C91.2744 54.2518 91.6598 53.7538 91.9401 53.2481C92.2282 52.7347 92.3723 52.2212 92.3723 51.7077C92.3723 51.3498 92.2944 50.9569 92.1387 50.529C91.983 50.0933 91.7883 49.6265 91.5547 49.1286C91.3211 48.6307 91.0681 48.0978 90.7956 47.5298C90.5231 46.9697 90.27 46.3784 90.0364 45.756C89.8028 45.1258 89.6082 44.4684 89.4525 43.7837C89.2967 43.0991 89.2189 42.3872 89.2189 41.6481C89.2189 40.9635 89.2851 40.2555 89.4174 39.5242C89.5576 38.7928 89.8028 38.0226 90.1532 37.2135C90.2934 36.8945 90.4569 36.6378 90.6437 36.4433C90.8384 36.241 91.0486 36.1399 91.2744 36.1399L91.3445 36.2099C91.3445 36.5055 91.2666 36.8323 91.1109 37.1902C90.963 37.5403 90.7995 37.8904 90.6204 38.2405C90.5114 38.4505 90.4296 38.6839 90.3751 38.9407C90.3206 39.1974 90.2934 39.4853 90.2934 39.8042C90.2934 40.4189 90.3712 41.0218 90.527 41.6131C90.6905 42.1966 90.889 42.7723 91.1226 43.3403C91.364 43.9004 91.6248 44.4528 91.9051 44.9974C92.1854 45.5498 92.4424 46.0983 92.6759 46.6429C92.9173 47.1875 93.1159 47.7321 93.2716 48.2767C93.4351 48.8213 93.5168 49.3659 93.5168 49.9105C93.5168 50.0972 93.5091 50.2839 93.4935 50.4707C93.4779 50.6496 93.4546 50.8402 93.4234 51.0425C93.4001 51.237 93.3728 51.4471 93.3417 51.6727C93.3027 51.8983 93.2677 52.1512 93.2365 52.4312C93.1198 53.2559 92.964 53.9756 92.7694 54.5902C92.5825 55.2048 92.3645 55.7533 92.1153 56.2357C91.8895 56.6791 91.6092 57.0837 91.2744 57.4494C90.9396 57.815 90.5776 58.1301 90.1883 58.3946C89.7989 58.6592 89.3902 58.8614 88.9619 59.0015C88.5415 59.1493 88.1288 59.2232 87.7239 59.2232C87.3969 59.2232 87.0621 59.1493 86.7195 59.0015C86.3691 58.8614 86.0538 58.6708 85.7735 58.4296C85.4932 58.1962 85.2635 57.9239 85.0844 57.6127C84.8975 57.3093 84.8041 56.9981 84.8041 56.6791C84.8041 56.4769 84.8469 56.2357 84.9326 55.9556C85.0182 55.6755 85.1545 55.341 85.3414 54.952H85.4582C85.9253 55.4188 86.3497 55.7416 86.7312 55.9206C87.1049 56.0995 87.4514 56.189 87.7706 56.189Z" fill="white"/>
<path d="M97.6046 55.0596C97.5812 55.1219 97.5501 55.1841 97.5112 55.2464C97.4722 55.3086 97.4333 55.3397 97.3944 55.3397C97.371 55.3397 97.3554 55.3086 97.3476 55.2464C97.3476 55.1841 97.3476 55.1219 97.3476 55.0596C97.3476 54.9196 97.3827 54.6006 97.4528 54.1027C97.5228 53.6048 97.5579 52.9435 97.5579 52.1188C97.5579 50.7028 97.5034 49.353 97.3944 48.0693C97.2932 46.7778 97.1413 45.5797 96.9389 44.4749C96.7364 43.3624 96.4834 42.3549 96.1797 41.4524C95.8761 40.5499 95.5218 39.7836 95.1169 39.1534C94.712 38.5154 94.2604 38.0253 93.7621 37.6829C93.256 37.3328 92.7071 37.1578 92.1153 37.1578C91.7961 37.1578 91.5119 37.2434 91.2627 37.4145C91.0136 37.5779 90.8073 37.8191 90.6437 38.1381C90.488 38.4337 90.3557 38.6671 90.2467 38.8383C90.1299 39.0094 90.0131 39.165 89.8963 39.3051L89.8028 39.2817V39.0017C89.8028 38.7994 89.8262 38.531 89.8729 38.1964C89.9118 37.8619 90.0131 37.5001 90.1766 37.1111C90.3557 36.691 90.562 36.3214 90.7956 36.0025C91.0214 35.6835 91.2628 35.4151 91.5197 35.1972C91.7689 34.9794 92.0258 34.816 92.2905 34.7071C92.5475 34.5982 92.8005 34.5437 93.0497 34.5437C93.6492 34.5437 94.2098 34.7304 94.7315 35.1039C95.2532 35.4695 95.7281 35.9869 96.1564 36.656C96.5846 37.3173 96.9622 38.107 97.2893 39.025C97.6241 39.9353 97.9044 40.9389 98.1302 42.0359C98.356 43.1251 98.5273 44.2843 98.6441 45.5135C98.7608 46.735 98.8192 47.9876 98.8192 49.2713C98.8192 50.2983 98.7881 51.0996 98.7258 51.6753C98.6713 52.2511 98.5857 52.679 98.4689 52.959C98.3365 53.3091 98.1925 53.6709 98.0367 54.0443C97.8888 54.4178 97.7448 54.7562 97.6046 55.0596Z" fill="white"/>
<path d="M68.6984 43.8827C68.6984 43.8594 68.7179 43.7855 68.7568 43.661C68.7879 43.5443 68.8347 43.412 68.8969 43.2642C68.9514 43.1086 69.0137 42.9608 69.0838 42.8207C69.1539 42.6729 69.2201 42.5601 69.2824 42.4823V42.459C68.9086 42.3656 68.605 42.2139 68.3714 42.0038C68.1378 41.786 68.021 41.5254 68.021 41.2219C68.021 41.1286 68.0366 41.0002 68.0677 40.8368C68.0911 40.6735 68.1456 40.4673 68.2312 40.2183C68.2857 40.0316 68.3636 39.8566 68.4648 39.6932C68.5582 39.5298 68.6789 39.3898 68.8269 39.2731C68.967 39.1564 69.1383 39.063 69.3408 38.993C69.5354 38.9229 69.7651 38.8879 70.0298 38.8879C70.4659 38.8879 70.8007 38.958 71.0342 39.098C71.2678 39.2303 71.3846 39.4014 71.3846 39.6115C71.3846 39.7749 71.3535 39.9344 71.2912 40.09C71.2211 40.2533 71.151 40.4284 71.081 40.6151C71.0576 40.6618 71.0265 40.6851 70.9875 40.6851C70.9252 40.6851 70.8863 40.6462 70.8707 40.5684C70.8552 40.3817 70.7578 40.2378 70.5788 40.1366C70.3997 40.0355 70.1155 39.9849 69.7262 39.9849C69.3836 39.9849 69.1227 40.0433 68.9437 40.16C68.7646 40.2689 68.675 40.3817 68.675 40.4984C68.675 40.654 68.7373 40.794 68.8619 40.9185C68.9787 41.0352 69.1227 41.1403 69.294 41.2336C69.4575 41.3192 69.6249 41.3853 69.7962 41.432C69.9675 41.4787 70.1077 41.502 70.2167 41.502C70.4114 41.502 70.6216 41.4709 70.8474 41.4087C71.081 41.3464 71.3145 41.2686 71.5481 41.1753C71.7895 41.0741 72.027 40.9691 72.2606 40.8602C72.5019 40.7435 72.7238 40.6307 72.9263 40.5217C72.973 40.4984 73.008 40.4867 73.0314 40.4867C73.0781 40.4867 73.1015 40.5101 73.1015 40.5568C73.1015 40.5879 73.082 40.6229 73.0431 40.6618C72.8796 40.8252 72.7628 40.9885 72.6927 41.1519C72.6148 41.3153 72.5526 41.4398 72.5058 41.5254C72.428 41.681 72.3073 41.8171 72.1438 41.9338C71.9881 42.0427 71.8012 42.1478 71.5832 42.2489C71.3729 42.3501 71.1471 42.4473 70.9058 42.5407C70.6644 42.6418 70.4308 42.7546 70.205 42.8791C69.9714 42.9958 69.7534 43.1358 69.551 43.2992C69.3485 43.4548 69.1811 43.6415 69.0488 43.8594C69.0098 43.9061 68.9748 43.9489 68.9437 43.9878C68.9047 44.0267 68.8619 44.0461 68.8152 44.0461C68.7373 44.0461 68.6984 43.9916 68.6984 43.8827Z" fill="#31C0CC"/>
<path d="M47.197 68.4656C47.1581 68.6756 47.0919 68.9129 46.9985 69.1774C46.8972 69.4497 46.7921 69.7065 46.6831 69.9476C46.5741 70.1888 46.4729 70.3911 46.3795 70.5545C46.286 70.7179 46.2237 70.7996 46.1926 70.7996C46.0914 70.7996 45.9629 70.7646 45.8072 70.6945C45.6437 70.6323 45.4685 70.5467 45.2816 70.4378C45.0869 70.3367 44.8923 70.22 44.6976 70.0877C44.503 69.9554 44.3239 69.8193 44.1604 69.6792C43.9891 69.547 43.845 69.4147 43.7283 69.2825C43.6115 69.158 43.5375 69.0491 43.5063 68.9557C43.5063 68.909 43.5531 68.7729 43.6465 68.5472C43.7321 68.3216 43.8334 68.0766 43.9502 67.812C44.067 67.5475 44.1876 67.3024 44.3122 67.0768C44.4368 66.8512 44.5341 66.715 44.6042 66.6684C44.7288 66.8084 44.8923 66.964 45.0947 67.1352C45.2972 67.3141 45.5191 67.4853 45.7604 67.6487C46.0018 67.8198 46.2471 67.9793 46.4962 68.1271C46.7454 68.2749 46.979 68.3878 47.197 68.4656ZM48.4116 65.9448C48.7309 66.3416 49.1241 66.6956 49.5913 67.0068C50.0662 67.318 50.5451 67.5631 51.0278 67.742C50.8643 68.1699 50.7164 68.5278 50.584 68.8157C50.4594 69.1035 50.3504 69.333 50.257 69.5042C50.1635 69.6831 50.0857 69.8115 50.0234 69.8893C49.9689 69.9671 49.93 70.006 49.9066 70.006C49.8443 70.006 49.747 69.9788 49.6146 69.9243C49.4822 69.8776 49.3304 69.8076 49.1591 69.7143C48.9878 69.6209 48.8048 69.512 48.6102 69.3875C48.4233 69.2708 48.2442 69.1424 48.0729 69.0024C47.9016 68.8701 47.7498 68.7301 47.6175 68.5823C47.4851 68.4344 47.3917 68.2866 47.3372 68.1388C47.3372 68.0843 47.3722 67.9599 47.4423 67.7654C47.5201 67.5786 47.6097 67.3686 47.7109 67.1352C47.8199 66.9018 47.9367 66.6723 48.0613 66.4466C48.1858 66.2288 48.3026 66.0615 48.4116 65.9448Z" fill="#31C0CC"/>
<path d="M82.842 49.084C82.8031 49.294 82.7369 49.5352 82.6435 49.8075C82.5422 50.072 82.4371 50.3249 82.3281 50.5661C82.2191 50.8072 82.1179 51.0095 82.0245 51.1729C81.931 51.3363 81.8687 51.418 81.8376 51.418C81.7364 51.418 81.6079 51.3869 81.4522 51.3246C81.2887 51.2546 81.1135 51.169 80.9266 51.0679C80.732 50.959 80.5373 50.8384 80.3427 50.7061C80.148 50.5738 79.9689 50.4416 79.8054 50.3093C79.6341 50.1693 79.4901 50.037 79.3733 49.9125C79.2565 49.7803 79.1825 49.6675 79.1514 49.5741C79.1514 49.5274 79.1981 49.3913 79.2915 49.1657C79.3772 48.94 79.4784 48.695 79.5952 48.4304C79.712 48.1659 79.8327 47.9208 79.9572 47.6952C80.0818 47.4696 80.1791 47.3335 80.2492 47.2868C80.3738 47.4268 80.5373 47.5863 80.7397 47.7652C80.9422 47.9364 81.1641 48.1076 81.4055 48.2787C81.6468 48.4421 81.8921 48.5977 82.1413 48.7455C82.3904 48.8934 82.624 49.0062 82.842 49.084ZM84.0567 46.5632C84.3759 46.96 84.7691 47.314 85.2363 47.6252C85.7112 47.9364 86.1901 48.1815 86.6728 48.3604C86.5093 48.7883 86.3614 49.1462 86.229 49.4341C86.1044 49.7219 85.9954 49.9553 85.902 50.1343C85.8086 50.3054 85.7307 50.4299 85.6684 50.5077C85.6139 50.5855 85.575 50.6244 85.5516 50.6244C85.4893 50.6244 85.392 50.6011 85.2596 50.5544C85.1273 50.4999 84.9754 50.426 84.8041 50.3327C84.6328 50.2393 84.4499 50.1343 84.2552 50.0176C84.0683 49.8931 83.8893 49.7647 83.718 49.6325C83.5467 49.4924 83.3948 49.3485 83.2625 49.2007C83.1301 49.0451 83.0367 48.8972 82.9822 48.7572C82.9822 48.7027 83.0172 48.5822 83.0873 48.3954C83.1651 48.2009 83.2547 47.987 83.3559 47.7536C83.4649 47.5202 83.5817 47.2946 83.7063 47.0767C83.8309 46.8511 83.9477 46.6799 84.0567 46.5632Z" fill="#31C0CC"/>
<path d="M58.2266 80.8094L57.5107 80.4873C58.489 78.0774 59.6105 76.1805 60.8751 74.7966C62.1397 73.4126 63.5713 72.7207 65.17 72.7207C65.7188 72.7207 66.3273 72.7803 66.9954 72.8996C67.6873 73.0189 68.2719 73.0786 68.7491 73.0786C69.5365 73.0786 69.9302 73.4604 69.9302 74.2239C69.9302 75.0113 69.7393 75.751 69.3576 76.4429C68.9758 77.1349 68.4628 77.6837 67.8185 78.0893C67.1982 78.5188 66.5062 78.7336 65.7427 78.7336C65.2177 78.7336 64.6451 78.6262 64.0247 78.4114C63.4282 78.2206 62.8555 78.1251 62.3067 78.1251C61.4239 78.1251 60.6842 78.3518 60.0877 78.8051C59.515 79.2585 58.8947 79.9266 58.2266 80.8094Z" fill="white"/>
<path d="M65.7594 78.7455C64.972 78.7455 64.5783 78.3637 64.5783 77.6002C64.5783 76.8844 64.7573 76.1805 65.1152 75.4885C65.4731 74.7966 65.9742 74.2239 66.6184 73.7705C67.2627 73.3172 68.0262 73.0905 68.9091 73.0905C69.4817 73.0905 70.0066 73.0309 70.4838 72.9116C70.9849 72.7923 71.4621 72.6252 71.9155 72.4105C71.5337 71.5992 71.1281 70.9908 70.6986 70.5851C70.2691 70.1557 69.7084 69.9409 69.0164 69.9409C68.921 69.9409 68.8255 69.9409 68.7301 69.9409C68.6585 69.9409 68.5869 69.9528 68.5153 69.9767L68.3006 69.6188C68.8255 68.4973 69.601 67.6622 70.627 67.1134C71.6769 66.5646 72.7625 66.2902 73.884 66.2902C74.5521 66.2902 75.1844 66.3857 75.7809 66.5766C76.3774 66.7674 76.8666 67.0657 77.2484 67.4713C77.654 67.8531 77.8568 68.3542 77.8568 68.9746C77.8568 69.5233 77.7017 70.0602 77.3915 70.5851C77.1052 71.0862 76.616 71.6589 75.9241 72.3031C76.1388 72.3747 76.4371 72.4105 76.8189 72.4105C77.0813 72.4105 77.2841 72.5298 77.4273 72.7684C77.5705 72.9831 77.642 73.2337 77.642 73.52C77.642 74.2597 77.475 74.7727 77.141 75.059C76.8308 75.3453 76.3655 75.4885 75.7451 75.4885C74.91 75.4885 74.1823 75.2499 73.5619 74.7727L73.4903 74.7369C72.6075 75.5482 71.7843 76.264 71.0207 76.8844C70.281 77.4809 69.4936 77.9462 68.6585 78.2802C67.8473 78.5904 66.8809 78.7455 65.7594 78.7455Z" fill="white"/>
<path d="M75.7208 75.5243C75.5538 75.5243 75.3748 75.4408 75.1839 75.2738C74.9692 75.0829 74.8618 74.7966 74.8618 74.4148C74.8618 73.7705 75.0646 73.2933 75.4703 72.9831C75.8759 72.6491 76.2696 72.4821 76.6514 72.4821C79.4431 72.4821 81.8768 71.0504 83.9527 68.1872C84.6208 67.2805 85.1577 66.5646 85.5633 66.0397C85.9928 65.5148 86.3746 65.133 86.7086 64.8944C87.0427 64.6319 87.4125 64.4649 87.8182 64.3933C87.9852 64.0831 88.2118 63.7371 88.4982 63.3554C88.7845 62.9497 89.0708 62.5799 89.3572 62.2459C89.6435 61.8879 89.8821 61.6255 90.073 61.4584H90.5025C90.9797 62.6276 91.4569 63.5224 91.9341 64.1428C92.2682 64.5484 92.4948 64.8705 92.6141 65.1091C92.7334 65.3477 92.7931 65.6102 92.7931 65.8965C92.7931 66.2783 92.6857 66.7197 92.471 67.2208C92.2562 67.698 91.9699 68.1633 91.612 68.6166C91.2541 69.07 90.8723 69.4518 90.4667 69.762C90.061 70.0483 89.6674 70.1914 89.2856 70.1914C88.9515 70.1914 88.6413 70.1318 88.355 70.0125C87.7824 69.75 87.2574 69.5591 86.7802 69.4398C86.3269 69.2967 85.9212 69.2251 85.5633 69.2251C85.3247 69.2251 84.9549 69.4518 84.4538 69.9051C83.9527 70.3346 83.2966 70.9669 82.4853 71.802C81.2923 73.0428 80.1827 73.9734 79.1567 74.5937C78.1546 75.2141 77.0093 75.5243 75.7208 75.5243Z" fill="white"/>
<path d="M104.743 77.5525C102.977 77.5525 101.677 76.8844 100.842 75.5482C100.03 74.1881 99.6247 72.1957 99.6247 69.5711C99.6247 67.5906 99.6605 65.6579 99.7321 63.7729C99.8275 61.8879 99.9349 60.158 100.054 58.5832C100.173 56.9846 100.305 55.6126 100.448 54.4673C100.591 53.2981 100.722 52.4511 100.842 51.9261C101.128 50.7331 101.557 49.4327 102.13 48.0249L102.882 48.2396C102.619 49.8622 102.416 51.938 102.273 54.4673C102.13 56.9965 102.058 59.9672 102.058 63.3792C102.058 64.2859 102.082 65.2404 102.13 66.2425C102.202 67.2208 102.369 68.1394 102.631 68.9984C102.917 69.8574 103.359 70.5613 103.955 71.1101C104.576 71.635 105.423 71.8975 106.497 71.8975C107.523 71.8975 108.036 72.5775 108.036 73.9376C108.036 74.8443 107.857 75.5601 107.499 76.085C107.141 76.61 106.699 76.9917 106.174 77.2303C105.673 77.4451 105.196 77.5525 104.743 77.5525Z" fill="white"/>
<path d="M104.696 77.5525C103.694 77.5525 103.193 76.8724 103.193 75.5124C103.193 74.7727 103.312 74.1881 103.551 73.7586C103.766 73.3053 104.016 72.9593 104.302 72.7207C104.565 72.4821 104.768 72.3389 104.911 72.2912C104.935 71.9571 105.03 71.4561 105.197 70.788C105.388 70.1199 105.662 69.3563 106.02 68.4973C106.378 67.6384 106.808 66.7794 107.309 65.9204C108.025 64.7274 108.752 63.8803 109.492 63.3792C110.232 62.8543 111.115 62.5918 112.141 62.5918C113.429 62.5918 114.944 62.9139 116.686 63.5582C117.521 63.8684 118.237 64.1189 118.834 64.3098C119.43 64.4768 119.883 64.6081 120.194 64.7035L120.301 65.133C118.726 67.5668 117.175 69.7262 115.648 71.6112C114.121 73.4723 112.475 74.9278 110.709 75.9777C108.967 77.0275 106.963 77.5525 104.696 77.5525ZM106.199 71.8975H106.486C107.893 71.8975 109.265 71.7424 110.602 71.4322C111.938 71.0982 113.155 70.609 114.252 69.9648C115.374 69.2967 116.269 68.4854 116.937 67.531C115.839 67.1254 114.825 66.8152 113.894 66.6004C112.988 66.3618 112.176 66.2425 111.461 66.2425C110.387 66.2425 109.492 66.5288 108.776 67.1015C108.06 67.6741 107.5 68.39 107.094 69.249C106.688 70.1079 106.39 70.9908 106.199 71.8975Z" fill="white"/>
<path d="M108.59 86.4046C108.089 85.8797 107.588 85.3906 107.087 84.9372C106.586 84.5077 106.097 84.1021 105.62 83.7203V83.434C105.834 83.1238 106.156 82.7182 106.586 82.2171C106.992 81.7399 107.409 81.2746 107.839 80.8212C108.244 80.3917 108.543 80.1174 108.733 79.998H109.056C109.986 80.5946 110.678 81.1195 111.131 81.5729C111.609 82.0501 111.847 82.5273 111.847 83.0045C111.847 83.8635 110.857 84.9969 108.877 86.4046H108.59Z" fill="white"/>
<path d="M58.0058 68.4615C57.4809 67.9365 56.9798 67.4593 56.5026 67.0298C56.0015 66.6003 55.5124 66.1947 55.0352 65.8129V65.4908C55.2738 65.1568 55.6078 64.7511 56.0373 64.2739C56.4429 63.7728 56.8486 63.3076 57.2542 62.8781C57.6598 62.4486 57.9581 62.1742 58.149 62.0549H58.4711C59.0438 62.4128 59.5448 62.7588 59.9743 63.0928C60.3799 63.403 60.6901 63.7251 60.9049 64.0592C61.1673 63.7251 61.4656 63.3791 61.7997 63.0212C62.1337 62.6395 62.4558 62.3054 62.766 62.0191C63.0762 61.7089 63.3029 61.5061 63.446 61.4106H63.7324C64.6868 62.0072 65.3907 62.544 65.844 63.0212C66.3212 63.4746 66.5599 63.9399 66.5599 64.4171C66.5599 65.3238 65.6054 66.4572 63.6966 67.8172H63.3745C62.9688 67.4116 62.5751 67.0418 62.1934 66.7077C61.8116 66.3498 61.4537 66.0277 61.1196 65.7414C60.7379 66.5049 59.8073 67.4116 58.3279 68.4615H58.0058Z" fill="white"/>
<path fill-rule="evenodd" clip-rule="evenodd" d="M30.6844 80.4852L20.7185 83.5037L28.4558 85.1273C37.3086 86.9849 49.0913 91.5053 54.5337 95.13L58.2524 97.608L58.8224 92.7076C59.4606 87.2211 58.5589 85.7618 52.3816 82.2894C43.6479 77.3806 41.5197 77.2034 30.6844 80.4852ZM75.482 82.7921C64.4887 84.4152 61.5961 86.4059 60.8446 92.8663L60.2836 97.6891L65.8504 95.8849C73.3013 93.4701 82.5476 92.296 92.1941 92.5403L100.143 92.7422L91.0654 87.6036C86.072 84.7772 81.762 82.3559 81.4878 82.222C81.2125 82.0889 78.5104 82.3452 75.482 82.7921ZM8.7416 89.039C2.75609 89.5401 2.53652 89.6646 1.83595 92.933C1.14374 96.1646 1.23752 96.297 4.02642 96.0314C5.62865 95.88 10.424 95.4089 14.6821 94.9866C29.0287 93.5616 47.0553 97.9122 60.1254 105.953C63.4181 107.979 65.8873 109.155 65.612 108.566C64.7514 106.728 50.8845 98.0718 43.7686 94.9312C35.4173 91.2447 17.7986 88.2818 8.7416 89.039Z" fill="#31C0CC"/>
<path fill-rule="evenodd" clip-rule="evenodd" d="M120.601 16.3592C119.363 18.6271 119.464 19.5152 121.244 21.9903C122.406 23.6071 123.796 25.0359 124.332 25.1653C125.684 25.492 131.251 21.9824 131.587 20.5918C131.738 19.965 130.808 20.2588 129.52 21.2451C126.136 23.8352 122.323 21.6679 122.177 17.0695L122.07 13.6673L120.601 16.3592ZM92.8082 16.4781C88.4632 16.7252 76.4593 20.0391 76.2127 21.0601C76.0913 21.5627 76.9466 21.9069 78.1134 21.8247C79.3777 21.7359 80.1266 22.1233 79.9666 22.7855C79.8193 23.3956 79.2578 23.4498 78.718 22.9043C78.0584 22.2381 77.8136 22.5002 77.9709 23.7053C78.2615 25.9429 76.8303 25.6952 75.6599 23.3057C74.9783 21.9145 74.4112 21.6982 73.1124 22.3357C72.1934 22.7865 71.5332 23.8578 71.6445 24.718C71.7816 25.7733 71.4187 25.985 70.5249 25.3686C69.7982 24.8677 68.8713 24.7857 68.4657 25.1873C68.06 25.5889 68.2307 26.2768 68.845 26.7162C69.5306 27.2061 69.3024 27.3868 68.2536 27.1835C66.2283 26.7924 63.2737 29.7741 63.873 31.6054C64.1247 32.3723 63.9207 32.5129 63.3684 31.955C62.8589 31.4398 61.7671 31.7768 60.9409 32.7027C58.3068 35.6565 59.0091 35.6843 64.7624 32.8528C71.6576 29.4596 80.4307 27.3523 85.8826 27.7805C89.6481 28.0767 92.126 26.4556 92.4323 23.4955C92.4736 23.0956 93.1065 23.1817 93.8377 23.6858C95.5995 24.8998 95.1554 26.4624 93.183 25.986C92.3249 25.7788 91.6727 26.2085 91.7348 26.94C91.8034 27.7524 93.9455 28.8601 97.2358 29.7852C100.2 30.618 104.399 32.4343 106.568 33.8207C109.49 35.6883 110.764 36.0909 111.487 35.3739C112.981 33.8958 111.761 30.7904 109.15 29.4211C107.758 28.6907 106.99 27.5082 107.254 26.4964C107.67 24.8979 107.731 24.9136 108.283 26.765C108.607 27.8466 109.786 28.9532 110.904 29.2233C112.603 29.6335 112.984 29.2104 113.218 26.6531C113.395 24.7162 113.928 23.6956 114.67 23.8748C115.687 24.1204 115.363 26.1844 113.801 29.4013C112.725 31.6155 113.12 32.8875 115.025 33.3477C116.149 33.619 117.455 34.5217 117.93 35.353C119.101 37.4037 118.794 40.516 117.453 40.1922C116.855 40.0477 116.692 39.6077 117.089 39.2145C118.399 37.9183 116.277 34.5396 114.314 34.7956C111.572 35.1524 111.453 37.605 114.091 39.4113C115.359 40.2799 118.063 43.7511 120.099 47.1247C122.135 50.4972 124.253 53.1086 124.808 52.9275C125.362 52.7453 125.563 53.381 125.253 54.3389C124.945 55.2979 125.156 58.2922 125.723 60.994C126.289 63.6956 126.693 66.7752 126.621 67.8371C126.474 69.94 130.72 63.1318 129.187 63.2526C121.984 62.2106 135.387 67.3188 129.971 68.6463C124.35 70.0244 126.506 71.727 132.515 70.5614C135.663 69.951 124.647 74.795 128.07 74.7364C136.421 74.5943 126.311 69.0303 127.039 70.2406C127.861 71.6064 125.474 82.8008 123.827 85.5381C122.518 87.7126 122.542 87.7424 124.361 86.1886C127.216 83.7514 130.303 78.2963 130.123 76.0062C129.992 74.3432 130.09 74.2918 130.67 75.7178C131.275 77.2052 131.441 77.1953 131.829 75.6442C132.227 74.0537 124.276 77.4281 129.406 78.9779C132.613 79.9477 131.208 73.4942 131.302 73.0978C131.579 71.9411 135.754 75.4969 131.471 74.8849C128.065 74.3982 131.951 72.1785 133.031 70.9676C133.72 70.1953 134.07 69.216 133.811 68.7905C132.994 67.4532 129.923 67.1369 129.153 68.3112C128.748 68.9309 128.112 68.9734 127.742 68.4062C127.36 67.8228 127.945 67.0108 129.095 66.5323C131.714 65.4418 132.404 62.5796 130.179 62.0339C129.232 61.8008 127.999 60.0199 127.439 58.0761C126.749 55.6773 126.783 55.0254 127.546 56.0483C128.431 57.2362 128.871 57.2664 129.611 56.1935C130.989 54.193 130.355 51.4428 128.571 51.6753C127.206 51.8535 121.82 48.0806 122.054 47.1109C122.221 46.418 125.861 48.722 126.191 49.73C126.705 51.2986 127.818 51.2252 131.407 49.3887L134.749 47.6781L131.84 41.4099C128.539 34.2961 126.805 32.2334 125.342 33.6815C124.631 34.3849 124.103 34.1393 123.447 32.8003C122.658 31.1913 122.212 31.0585 120.116 31.8081C118.108 32.5256 117.542 32.4004 116.792 31.0719C115.503 28.7915 115.781 28.5414 118.319 29.6926C119.55 30.2507 120.998 30.273 121.535 29.7405C122.216 29.0674 122.777 29.4093 123.384 30.8702C123.864 32.0228 124.632 32.7371 125.091 32.4568C126.44 31.6332 125.534 30.2192 121.462 26.7866C117.534 23.4765 110.811 19.8938 111.778 21.6263C112.412 22.7619 109.962 24.8236 108.423 24.4519C107.731 24.2849 107.872 23.8829 108.829 23.2983C111.256 21.8151 111.076 19.8777 108.453 19.244C106.92 18.8737 105.855 19.2079 105.633 20.1274C105.436 20.9404 104.846 21.5019 104.321 21.3751C103.797 21.2485 103.783 20.5412 104.291 19.8033C104.99 18.7885 104.47 18.2822 102.154 17.7228C98.916 16.9406 98.1439 17.6292 99.5963 20.0076C100.083 20.8041 100.035 21.7084 99.4898 22.0158C98.945 22.3244 98.4351 21.9749 98.3575 21.2385C98.1512 19.304 96.1385 19.0984 92.8862 20.6795C86.3928 23.838 86.5741 23.6659 88.4065 24.9502C89.7139 25.8657 89.3648 25.9775 86.886 25.4351C85.1164 25.0473 83.5603 25.1742 83.4294 25.7163C83.2985 26.2583 82.7619 26.598 82.2368 26.4712C81.7126 26.3446 81.6989 25.6373 82.2066 24.8994C82.7153 24.1618 83.7626 23.7107 84.5341 23.897C86.5084 24.3739 87.968 21.8707 86.9393 19.7709C85.9658 17.7835 87.4701 17.7546 88.6812 19.7379C89.2311 20.6384 90.6987 20.6017 93.5678 19.6144C99.672 17.5143 99.3317 16.1086 92.8082 16.4781ZM81.5817 21.0979C81.2544 22.453 81.344 23.0619 81.7807 22.4498C82.2181 21.8388 82.4859 20.7301 82.3757 19.9859C82.2664 19.243 81.909 19.7428 81.5817 21.0979ZM95.8865 25.9433C95.6659 26.8569 96.2569 27.7642 97.2174 27.9878C98.2038 28.2167 98.5988 27.971 98.1377 27.4153C97.6934 26.8804 97.0942 25.9597 96.8066 25.3718C96.5192 24.783 96.1046 25.0406 95.8865 25.9433ZM106.266 30.7971C106.036 31.9566 106.213 32.2466 106.717 31.537C107.174 30.8942 107.343 30.0352 107.095 29.629C106.847 29.2228 106.474 29.7481 106.266 30.7971ZM121.694 36.5624C120.803 37.1858 120.482 37.7946 120.978 37.9145C121.475 38.0344 122.594 37.6007 123.465 36.9507C125.505 35.4283 123.835 35.0614 121.694 36.5624ZM127.346 38.3564C126.439 38.665 125.396 38.6124 125.028 38.2409C124.66 37.8693 124.234 38.0825 124.082 38.7142C123.925 39.3657 124.555 39.7651 125.539 39.6376C126.768 39.4767 127.008 39.7964 126.362 40.7346C125.861 41.4616 125.83 42.4398 126.293 42.9082C126.841 43.4619 126.614 44.1486 125.646 44.8712C123.871 46.196 124.677 46.5283 127.736 45.7327C129.388 45.3026 130.282 45.5853 131.22 46.8351C132.282 48.2505 132.46 48.2643 132.355 46.9206C132.286 46.0433 131.031 44.8829 129.566 44.3412C127.177 43.4585 127.034 43.0746 128.174 40.6152C129.599 37.5435 129.615 37.5871 127.346 38.3564ZM74.2727 27.1886C73.0284 27.7297 72.4543 28.2805 72.9962 28.4114C73.5381 28.5423 74.9988 28.2056 76.2431 27.6645C77.4866 27.1221 78.0614 26.5725 77.5196 26.4416C76.9777 26.3108 75.5162 26.6462 74.2727 27.1886ZM131.861 50.2764C130.821 51.0527 130.689 51.8886 131.353 53.4841C132.114 55.3126 131.984 55.806 130.51 56.7058C129.553 57.2914 128.815 58.3124 128.868 58.9762C129.015 60.8015 132.582 61.8759 134.283 60.6063C136.023 59.3077 135.905 55.8061 134.141 56.3844C133.427 56.6186 133.362 56.3683 133.978 55.7589C135.208 54.5404 135.311 49.7204 134.113 49.431C133.648 49.3187 132.634 49.6987 131.861 50.2764ZM133.7 61.7454C132.527 62.9066 132.725 66.8271 133.972 67.1281C135.119 67.4054 135.87 64.4128 135.17 62.3517C134.801 61.2676 134.365 61.0871 133.7 61.7454Z" fill="#31C0CC"/>
</svg>
