<svg width="15" height="16" viewBox="0 0 15 16" fill="none" xmlns="http://www.w3.org/2000/svg">
<path d="M5.76465 10.8824L5.76465 8.41177" stroke="white" stroke-width="1.5" stroke-linecap="round"/>
<path d="M9.05859 10.8824L9.05859 8.41177" stroke="white" stroke-width="1.5" stroke-linecap="round"/>
<path d="M0 4.29411H14.8235V4.29411C14.3863 4.29411 14.1676 4.29411 13.9854 4.32817C13.1737 4.4799 12.5387 5.1149 12.387 5.92661C12.3529 6.10879 12.3529 6.32742 12.3529 6.7647V11C12.3529 12.8856 12.3529 13.8284 11.7672 14.4142C11.1814 15 10.2386 15 8.35294 15H6.47059C4.58497 15 3.64216 15 3.05637 14.4142C2.47059 13.8284 2.47059 12.8856 2.47059 11V6.7647C2.47059 6.32743 2.47059 6.10879 2.43653 5.92661C2.2848 5.1149 1.6498 4.4799 0.838087 4.32817C0.655916 4.29411 0.437277 4.29411 0 4.29411V4.29411Z" stroke="white" stroke-width="1.5" stroke-linecap="round"/>
<path d="M5.8206 1.30519C5.91444 1.21764 6.12122 1.14027 6.40887 1.08509C6.69652 1.02991 7.04896 1 7.41153 1C7.77411 1 8.12655 1.02991 8.4142 1.08509C8.70185 1.14027 8.90863 1.21764 9.00247 1.30519" stroke="white" stroke-width="1.5" stroke-linecap="round"/>
</svg>
