<svg width="146" height="113" viewBox="0 0 146 113" fill="none" xmlns="http://www.w3.org/2000/svg">
<path d="M38.0125 62.4071C37.5998 62.4071 37.2027 62.3176 36.8212 62.1387C36.4397 61.9598 36.1126 61.6291 35.8401 61.1467H35.7467C35.7467 61.6058 35.735 62.0842 35.7116 62.5822C35.6883 63.0801 35.6455 63.5586 35.5832 64.0176C35.4586 65.099 35.2406 66.091 34.9291 66.9934C34.6255 67.9037 34.2517 68.7245 33.8079 69.4558C33.3719 70.1871 32.8814 70.829 32.3363 71.3814C31.7913 71.9415 31.2151 72.4083 30.6078 72.7818C30.0083 73.1552 29.3893 73.4353 28.7508 73.622C28.1201 73.8165 27.5011 73.9138 26.8938 73.9138C26.0295 73.9138 25.2587 73.7426 24.5813 73.4003C23.9117 73.0658 23.3472 72.6028 22.8878 72.0116C22.4284 71.4203 22.078 70.724 21.8367 69.9226C21.5953 69.1213 21.4746 68.2577 21.4746 67.3319C21.4746 67.114 21.4824 66.8417 21.498 66.515C21.5135 66.196 21.5564 65.8381 21.6264 65.4413C21.6965 65.0523 21.7977 64.6322 21.9301 64.181C22.0625 63.7297 22.2493 63.2668 22.4907 62.7922C22.7321 62.3099 23.0318 61.8236 23.39 61.3335C23.7482 60.8433 24.1842 60.361 24.6981 59.8864C25.4066 59.2406 26.1385 58.696 26.8938 58.2526C27.6491 57.8013 28.3926 57.424 29.1245 57.1206C29.8564 56.8172 30.5611 56.5721 31.2385 56.3854C31.9159 56.1909 32.5388 56.0275 33.1072 55.8952C33.1772 55.8952 33.2473 55.9069 33.3174 55.9302C33.3953 55.9536 33.4342 55.9886 33.4342 56.0353C33.4342 56.0742 33.4147 56.117 33.3758 56.1636C33.3446 56.2103 33.294 56.2453 33.224 56.2687C32.3597 56.541 31.5655 56.8133 30.8414 57.0856C30.1251 57.3579 29.4671 57.6379 28.8676 57.9258C28.2758 58.2137 27.7308 58.5132 27.2325 58.8244C26.742 59.1278 26.2943 59.4507 25.8894 59.793C25.3132 60.2754 24.8266 60.7772 24.4295 61.2985C24.0324 61.8119 23.7054 62.3293 23.4484 62.8506C23.1992 63.3718 23.0163 63.8892 22.8995 64.4027C22.7905 64.9162 22.736 65.4102 22.736 65.8848C22.736 66.6861 22.8489 67.3708 23.0747 67.9387C23.3005 68.5144 23.6041 68.9851 23.9857 69.3508C24.3672 69.7242 24.811 69.9965 25.3171 70.1677C25.8232 70.3466 26.3565 70.4361 26.9172 70.4361C27.6568 70.4361 28.3654 70.2961 29.0428 70.016C29.728 69.7437 30.3664 69.3741 30.9582 68.9073C31.5499 68.4405 32.0872 67.8998 32.5699 67.2852C33.0604 66.6706 33.477 66.0287 33.8196 65.3596C34.1622 64.6905 34.4269 64.0137 34.6138 63.329C34.8084 62.6366 34.9058 61.9792 34.9058 61.3568C34.9058 60.9445 34.8513 60.4504 34.7423 59.8747C34.641 59.2912 34.5126 58.6649 34.3568 57.9958C34.2011 57.3267 34.0337 56.6343 33.8546 55.9186C33.6756 55.2028 33.5082 54.5065 33.3524 53.8296C33.1967 53.145 33.0643 52.4992 32.9553 51.8924C32.8541 51.2856 32.8035 50.7526 32.8035 50.2936C32.8035 49.8968 32.8892 49.4222 33.0604 48.8699C33.2395 48.3175 33.5276 47.6717 33.9247 46.9326L34.0415 47.0026C34.0259 47.0727 34.0181 47.1544 34.0181 47.2477C34.0181 47.3411 34.0181 47.4305 34.0181 47.5161C34.0181 47.9907 34.0649 48.547 34.1583 49.1849C34.2517 49.8229 34.3802 50.5231 34.5437 51.2856C34.7072 52.0402 34.8941 52.8454 35.1043 53.7013C35.3145 54.5571 35.5365 55.4362 35.77 56.3387C36.0036 57.2412 36.2606 58.0192 36.5409 58.6727C36.829 59.3262 37.1248 59.8397 37.4285 60.2131C37.6387 60.4854 37.7867 60.8005 37.8723 61.1584C37.9657 61.5163 38.0125 61.8547 38.0125 62.1737V62.4071Z" fill="white"/>
<path d="M34.3452 52.7356C34.5788 53.0079 34.7617 53.2646 34.8941 53.5058C35.0265 53.7392 35.116 53.9571 35.1627 54.1593C35.1861 54.2605 35.225 54.4239 35.2795 54.6495C35.334 54.8751 35.4002 55.1357 35.4781 55.4314C35.5559 55.727 35.6416 56.046 35.735 56.3883C35.8284 56.7306 35.9258 57.0691 36.027 57.4036C36.2216 58.0727 36.4358 58.6406 36.6693 59.1074C36.9029 59.582 37.1677 59.9632 37.4635 60.2511C37.7594 60.5467 38.0942 60.7607 38.468 60.893C38.8495 61.0252 39.2816 61.0913 39.7644 61.0913C40.0602 61.0913 40.3717 61.0252 40.6987 60.893C41.0335 60.7607 41.3605 60.5779 41.6798 60.3445C42.0068 60.1111 42.3182 59.8271 42.6141 59.4925C42.91 59.1658 43.1747 58.804 43.4083 58.4072C43.5796 58.1272 43.747 57.8043 43.9105 57.4386C44.0662 57.0652 44.2219 56.7112 44.3777 56.3766C44.5412 56.0421 44.7047 55.762 44.8682 55.5364C45.0395 55.303 45.2147 55.1863 45.3938 55.1863C45.5183 55.1863 45.6351 55.233 45.7441 55.3263C45.8609 55.4119 46.0011 55.5325 46.1646 55.6881C46.3281 55.8515 46.5305 56.0421 46.7719 56.2599C47.0133 56.4778 47.3169 56.719 47.6829 56.9835C48.2201 57.3569 48.6017 57.7226 48.8275 58.0805C49.0611 58.4461 49.1778 58.804 49.1778 59.1541V59.4575C48.991 59.5898 48.7924 59.6793 48.5822 59.726C48.3798 59.7804 48.1734 59.8076 47.9632 59.8076C47.714 59.8076 47.4766 59.7571 47.2508 59.6559C47.025 59.5548 46.807 59.442 46.5967 59.3175C46.3787 59.193 46.1646 59.0802 45.9544 58.9791C45.7519 58.8779 45.5495 58.8274 45.347 58.8274C45.2069 58.8274 45.0823 58.8974 44.9733 59.0374C44.8643 59.1852 44.7553 59.3759 44.6463 59.6093C44.5373 59.8504 44.4244 60.1266 44.3076 60.4378C44.183 60.7412 44.039 61.0563 43.8755 61.3831C43.7197 61.7099 43.5329 62.0327 43.3149 62.3517C43.0968 62.6785 42.8399 62.9741 42.544 63.2386C42.0846 63.651 41.6058 63.9505 41.1075 64.1372C40.6092 64.3317 40.0836 64.429 39.5308 64.429C39.048 64.429 38.5847 64.3356 38.1409 64.1489C37.6971 63.9622 37.2806 63.6821 36.8913 63.3087C36.5097 62.9352 36.1555 62.4606 35.8284 61.8849C35.5092 61.317 35.2328 60.6479 34.9992 59.8777C34.8435 59.3486 34.6994 58.8118 34.5671 58.2672C34.4347 57.7304 34.3218 57.2286 34.2284 56.7618C34.1349 56.295 34.061 55.8865 34.0065 55.5364C33.952 55.1863 33.9247 54.9373 33.9247 54.7895C33.9247 54.4239 33.9481 54.066 33.9948 53.7159C34.0415 53.3658 34.1116 53.039 34.205 52.7356H34.3452Z" fill="white"/>
<path d="M58.6381 52.5591C58.8016 52.598 58.9651 52.6214 59.1286 52.6292C59.2921 52.6292 59.4556 52.6292 59.6191 52.6292C60.0863 52.6292 60.5729 52.5514 61.079 52.3958C61.5929 52.2324 62.1107 51.999 62.6324 51.6956C63.154 51.3844 63.6679 51.0031 64.174 50.5519C64.6879 50.1007 65.1785 49.5794 65.6456 48.9881C65.7546 48.8403 65.8559 48.6886 65.9493 48.533C66.0427 48.3774 66.1206 48.2296 66.1829 48.0895C66.2529 47.9417 66.3036 47.8094 66.3347 47.6927C66.3736 47.5683 66.3931 47.4632 66.3931 47.3776C66.3931 47.1909 66.3503 46.9964 66.2646 46.7941C66.1868 46.5919 66.0622 46.409 65.8909 46.2456C65.7274 46.0823 65.5172 45.9461 65.2602 45.8372C65.0033 45.7283 64.7035 45.6738 64.3609 45.6738C63.7302 45.6738 63.1385 45.8333 62.5857 46.1523C62.0406 46.4635 61.5306 46.9108 61.0557 47.4943C60.5807 48.0778 60.1369 48.7897 59.7242 49.63C59.3193 50.4702 58.9417 51.4155 58.5913 52.4658L58.6381 52.5591ZM46.0244 55.43C46.4138 55.8423 46.8303 56.1574 47.2741 56.3752C47.7102 56.5853 48.1734 56.6903 48.664 56.6903C49.1701 56.6903 49.6995 56.5542 50.2523 56.2819C50.8052 56.0096 51.3813 55.5622 51.9809 54.9398C52.269 54.6442 52.522 54.3369 52.74 54.0179C52.958 53.6989 53.1488 53.3877 53.3123 53.0843C53.4836 52.7731 53.6354 52.4775 53.7678 52.1974C53.8924 51.9173 54.0131 51.6761 54.1299 51.4738C54.2544 51.2638 54.3751 51.0965 54.4919 50.972C54.6165 50.8475 54.7528 50.7853 54.9007 50.7853C55.0564 50.7853 55.2238 50.867 55.4029 51.0304C55.582 51.1937 55.7766 51.3727 55.9869 51.5672C56.1893 51.7695 56.4073 51.9601 56.6409 52.139C56.8745 52.3102 57.1275 52.4113 57.4001 52.4424L57.4935 52.3958C57.8361 51.042 58.2487 49.7895 58.7315 48.638C59.2142 47.4788 59.7515 46.4752 60.3432 45.6271C60.9428 44.7791 61.5929 44.1178 62.2937 43.6432C63.0022 43.1609 63.7536 42.9197 64.5478 42.9197C64.9371 42.9197 65.2952 42.9858 65.6223 43.1181C65.9571 43.2426 66.2413 43.4293 66.4748 43.6782C66.7162 43.9194 66.9031 44.2151 67.0355 44.5652C67.1678 44.9153 67.234 45.3159 67.234 45.7672C67.234 46.1173 67.2106 46.4479 67.1639 46.7591C67.1094 47.0781 67.0627 47.3854 67.0238 47.6811C66.9615 48.1401 66.8914 48.5563 66.8136 48.9298C66.7357 49.2954 66.6539 49.6261 66.5683 49.9217C66.4826 50.2174 66.3931 50.4858 66.2997 50.7269C66.2062 50.9603 66.1128 51.1743 66.0194 51.3688C65.7001 51.9445 65.3459 52.4541 64.9565 52.8976C64.5672 53.341 64.1624 53.73 63.7419 54.0646C63.3292 54.3991 62.9049 54.6831 62.4689 54.9165C62.0406 55.1499 61.6241 55.3405 61.2192 55.4883C60.8221 55.6284 60.4483 55.7334 60.098 55.8034C59.7476 55.8657 59.44 55.8968 59.1753 55.8968C58.7159 55.8968 58.3149 55.8579 57.9723 55.7801C57.6375 55.7023 57.3417 55.605 57.0847 55.4883C56.8278 55.3716 56.602 55.2471 56.4073 55.1149C56.2205 54.9826 56.0492 54.8581 55.8934 54.7414C55.7377 54.6247 55.5859 54.5275 55.4379 54.4497C55.29 54.3719 55.1343 54.333 54.9708 54.333C54.8073 54.333 54.6632 54.3952 54.5386 54.5197C54.4141 54.6442 54.2934 54.8115 54.1766 55.0215C54.0676 55.2238 53.9508 55.4572 53.8262 55.7217C53.7016 55.994 53.5615 56.278 53.4057 56.5736C53.2578 56.8615 53.0865 57.1533 52.8919 57.4489C52.6972 57.7445 52.4636 58.0207 52.1911 58.2775C51.6539 58.7909 51.0932 59.1644 50.5093 59.3978C49.9331 59.6312 49.3024 59.7479 48.6172 59.7479C48.1579 59.7479 47.7296 59.6662 47.3325 59.5028C46.9354 59.3394 46.5928 59.1294 46.3047 58.8726C46.0089 58.6237 45.7792 58.3475 45.6157 58.0441C45.4522 57.7406 45.3704 57.445 45.3704 57.1571C45.3704 56.9549 45.4132 56.7137 45.4989 56.4336C45.5845 56.1535 45.7208 55.819 45.9076 55.43H46.0244Z" fill="white"/>
<path d="M69.9202 46.6525C70.0837 46.1857 70.2511 45.7112 70.4224 45.2288C70.586 44.7464 70.7689 44.2407 70.9714 43.7117H71.0648C71.6643 45.0654 72.1743 46.4347 72.5948 47.8195C73.023 49.2044 73.3773 50.6204 73.6576 52.0674C73.9301 53.5145 74.2338 54.8721 74.5686 56.1403C74.9112 57.4007 75.2693 58.5171 75.6431 59.4896L75.4095 60.4699C75.2304 60.4699 75.0358 60.4037 74.8255 60.2715C74.6153 60.1314 74.3934 59.8747 74.1598 59.5013C73.9262 59.12 73.6887 58.5988 73.4474 57.9375C73.2138 57.2684 72.988 56.4009 72.77 55.3351C72.513 54.1136 72.1471 52.7832 71.6721 51.3439C71.1972 49.9046 70.6132 48.3408 69.9202 46.6525Z" fill="white"/>
<path d="M73.0269 52.0983C73.2605 52.3706 73.4435 52.6273 73.5759 52.8685C73.7082 53.1019 73.7978 53.3197 73.8445 53.522C73.8678 53.6231 73.9068 53.7865 73.9613 54.0121C74.0158 54.2378 74.082 54.4984 74.1598 54.794C74.2377 55.0897 74.3233 55.4087 74.4168 55.751C74.5102 56.0933 74.6075 56.4317 74.7087 56.7663C74.9034 57.4354 75.1175 58.0033 75.3511 58.4701C75.5847 58.9447 75.8494 59.3259 76.1453 59.6138C76.4412 59.9094 76.776 60.1234 77.1497 60.2556C77.5312 60.3879 77.9634 60.454 78.4461 60.454C78.742 60.454 79.0534 60.3879 79.3804 60.2556C79.7153 60.1234 80.0423 59.9405 80.3615 59.7071C80.6885 59.4737 81 59.1898 81.2958 58.8552C81.5917 58.5285 81.8565 58.1667 82.09 57.7699C82.2613 57.4898 82.4287 57.1669 82.5922 56.8013C82.748 56.4278 82.9037 56.0738 83.0594 55.7393C83.2229 55.4048 83.3864 55.1247 83.5499 54.8991C83.7212 54.6657 83.8964 54.549 84.0755 54.549C84.2001 54.549 84.3169 54.5956 84.4259 54.689C84.5427 54.7746 84.6828 54.8952 84.8464 55.0508C85.0099 55.2142 85.2123 55.4048 85.4537 55.6226C85.695 55.8404 85.9987 56.0816 86.3647 56.3462C86.9019 56.7196 87.2834 57.0853 87.5092 57.4431C87.7428 57.8088 87.8596 58.1667 87.8596 58.5168V58.8202C87.6727 58.9525 87.4742 59.0419 87.264 59.0886C87.0615 59.1431 86.8552 59.1703 86.645 59.1703C86.3958 59.1703 86.1583 59.1197 85.9325 59.0186C85.7067 58.9175 85.4887 58.8046 85.2785 58.6802C85.0605 58.5557 84.8463 58.4429 84.6361 58.3417C84.4337 58.2406 84.2312 58.19 84.0288 58.19C83.8886 58.19 83.7641 58.26 83.6551 58.4001C83.5461 58.5479 83.4371 58.7385 83.328 58.9719C83.219 59.2131 83.1061 59.4893 82.9893 59.8005C82.8648 60.1039 82.7207 60.419 82.5572 60.7458C82.4015 61.0725 82.2146 61.3954 81.9966 61.7144C81.7786 62.0411 81.5216 62.3368 81.2258 62.6013C80.7664 63.0136 80.2875 63.3132 79.7892 63.4999C79.2909 63.6944 78.7653 63.7916 78.2125 63.7916C77.7298 63.7916 77.2665 63.6983 76.8227 63.5116C76.3789 63.3248 75.9623 63.0448 75.573 62.6713C75.1915 62.2979 74.8372 61.8233 74.5102 61.2476C74.191 60.6796 73.9145 60.0105 73.681 59.2403C73.5252 58.7113 73.3812 58.1745 73.2488 57.6299C73.1165 57.093 73.0036 56.5912 72.9101 56.1244C72.8167 55.6576 72.7427 55.2492 72.6882 54.8991C72.6337 54.549 72.6065 54.3 72.6065 54.1522C72.6065 53.7865 72.6298 53.4286 72.6765 53.0785C72.7233 52.7284 72.7933 52.4017 72.8868 52.0983H73.0269Z" fill="white"/>
<path d="M87.0187 56.189C87.5092 56.189 88.0036 56.0762 88.502 55.8506C89.0081 55.6249 89.5181 55.2554 90.0319 54.7419C90.5225 54.2518 90.9079 53.7538 91.1882 53.2481C91.4763 52.7347 91.6203 52.2212 91.6203 51.7077C91.6203 51.3498 91.5425 50.9569 91.3867 50.529C91.231 50.0933 91.0364 49.6265 90.8028 49.1286C90.5692 48.6307 90.3161 48.0978 90.0436 47.5298C89.7711 46.9697 89.5181 46.3784 89.2845 45.756C89.0509 45.1258 88.8562 44.4684 88.7005 43.7837C88.5448 43.0991 88.4669 42.3872 88.4669 41.6481C88.4669 40.9635 88.5331 40.2555 88.6655 39.5242C88.8056 38.7928 89.0509 38.0226 89.4013 37.2135C89.5414 36.8945 89.7049 36.6378 89.8918 36.4433C90.0864 36.241 90.2967 36.1399 90.5225 36.1399L90.5926 36.2099C90.5926 36.5055 90.5147 36.8323 90.359 37.1902C90.211 37.5403 90.0475 37.8904 89.8684 38.2405C89.7594 38.4505 89.6777 38.6839 89.6232 38.9407C89.5687 39.1974 89.5414 39.4853 89.5414 39.8042C89.5414 40.4189 89.6193 41.0218 89.775 41.6131C89.9385 42.1966 90.1371 42.7723 90.3706 43.3403C90.612 43.9004 90.8729 44.4528 91.1532 44.9974C91.4335 45.5498 91.6904 46.0983 91.924 46.6429C92.1654 47.1875 92.3639 47.7321 92.5196 48.2767C92.6831 48.8213 92.7649 49.3659 92.7649 49.9105C92.7649 50.0972 92.7571 50.2839 92.7415 50.4707C92.726 50.6496 92.7026 50.8402 92.6715 51.0425C92.6481 51.237 92.6209 51.4471 92.5897 51.6727C92.5508 51.8983 92.5157 52.1512 92.4846 52.4312C92.3678 53.2559 92.2121 53.9756 92.0174 54.5902C91.8306 55.2048 91.6125 55.7533 91.3634 56.2357C91.1376 56.6791 90.8573 57.0837 90.5225 57.4494C90.1877 57.815 89.8256 58.1301 89.4363 58.3946C89.047 58.6592 88.6382 58.8614 88.21 59.0015C87.7895 59.1493 87.3769 59.2232 86.972 59.2232C86.645 59.2232 86.3102 59.1493 85.9676 59.0015C85.6172 58.8614 85.3018 58.6708 85.0215 58.4296C84.7412 58.1962 84.5115 57.9239 84.3325 57.6127C84.1456 57.3093 84.0522 56.9981 84.0522 56.6791C84.0522 56.4769 84.095 56.2357 84.1806 55.9556C84.2663 55.6755 84.4025 55.341 84.5894 54.952H84.7062C85.1734 55.4188 85.5977 55.7416 85.9792 55.9206C86.353 56.0995 86.6995 56.189 87.0187 56.189Z" fill="white"/>
<path d="M96.8526 55.0596C96.8293 55.1219 96.7981 55.1841 96.7592 55.2464C96.7203 55.3086 96.6814 55.3397 96.6424 55.3397C96.6191 55.3397 96.6035 55.3086 96.5957 55.2464C96.5957 55.1841 96.5957 55.1219 96.5957 55.0596C96.5957 54.9196 96.6307 54.6006 96.7008 54.1027C96.7709 53.6048 96.8059 52.9435 96.8059 52.1188C96.8059 50.7028 96.7514 49.353 96.6424 48.0693C96.5412 46.7778 96.3894 45.5797 96.1869 44.4749C95.9845 43.3624 95.7314 42.3549 95.4278 41.4524C95.1241 40.5499 94.7698 39.7836 94.365 39.1534C93.9601 38.5154 93.5085 38.0253 93.0102 37.6829C92.5041 37.3328 91.9551 37.1578 91.3634 37.1578C91.0442 37.1578 90.7599 37.2434 90.5108 37.4145C90.2616 37.5779 90.0553 37.8191 89.8918 38.1381C89.7361 38.4337 89.6037 38.6671 89.4947 38.8383C89.3779 39.0094 89.2611 39.165 89.1443 39.3051L89.0509 39.2817V39.0017C89.0509 38.7994 89.0742 38.531 89.121 38.1964C89.1599 37.8619 89.2611 37.5001 89.4246 37.1111C89.6037 36.691 89.81 36.3214 90.0436 36.0025C90.2694 35.6835 90.5108 35.4151 90.7677 35.1972C91.0169 34.9794 91.2738 34.816 91.5386 34.7071C91.7955 34.5982 92.0486 34.5437 92.2977 34.5437C92.8973 34.5437 93.4579 34.7304 93.9795 35.1039C94.5012 35.4695 94.9762 35.9869 95.4044 36.656C95.8326 37.3173 96.2103 38.107 96.5373 39.025C96.8721 39.9353 97.1524 40.9389 97.3782 42.0359C97.604 43.1251 97.7753 44.2843 97.8921 45.5135C98.0089 46.735 98.0673 47.9876 98.0673 49.2713C98.0673 50.2983 98.0361 51.0996 97.9739 51.6753C97.9193 52.2511 97.8337 52.679 97.7169 52.959C97.5845 53.3091 97.4405 53.6709 97.2848 54.0443C97.1368 54.4178 96.9928 54.7562 96.8526 55.0596Z" fill="white"/>
<path d="M67.9464 43.8828C67.9464 43.8595 67.9659 43.7856 68.0048 43.6611C68.036 43.5444 68.0827 43.4122 68.145 43.2643C68.1995 43.1087 68.2618 42.9609 68.3319 42.8209C68.4019 42.673 68.4681 42.5602 68.5304 42.4824V42.4591C68.1567 42.3657 67.853 42.214 67.6194 42.004C67.3858 41.7861 67.269 41.5255 67.269 41.2221C67.269 41.1287 67.2846 41.0003 67.3158 40.837C67.3391 40.6736 67.3936 40.4674 67.4793 40.2184C67.5338 40.0317 67.6116 39.8567 67.7129 39.6933C67.8063 39.5299 67.927 39.3899 68.0749 39.2732C68.2151 39.1565 68.3864 39.0631 68.5888 38.9931C68.7835 38.9231 69.0131 38.8881 69.2779 38.8881C69.7139 38.8881 70.0487 38.9581 70.2823 39.0981C70.5159 39.2304 70.6327 39.4015 70.6327 39.6116C70.6327 39.775 70.6015 39.9345 70.5392 40.0901C70.4692 40.2535 70.3991 40.4285 70.329 40.6152C70.3057 40.6619 70.2745 40.6852 70.2356 40.6852C70.1733 40.6852 70.1344 40.6463 70.1188 40.5685C70.1032 40.3818 70.0059 40.2379 69.8268 40.1368C69.6477 40.0356 69.3635 39.985 68.9742 39.985C68.6316 39.985 68.3708 40.0434 68.1917 40.1601C68.0126 40.269 67.9231 40.3818 67.9231 40.4985C67.9231 40.6541 67.9854 40.7942 68.11 40.9186C68.2267 41.0354 68.3708 41.1404 68.5421 41.2337C68.7056 41.3193 68.873 41.3855 69.0443 41.4321C69.2156 41.4788 69.3557 41.5022 69.4647 41.5022C69.6594 41.5022 69.8696 41.471 70.0954 41.4088C70.329 41.3466 70.5626 41.2688 70.7962 41.1754C71.0376 41.0743 71.275 40.9692 71.5086 40.8603C71.75 40.7436 71.9719 40.6308 72.1743 40.5219C72.2211 40.4985 72.2561 40.4869 72.2795 40.4869C72.3262 40.4869 72.3495 40.5102 72.3495 40.5569C72.3495 40.588 72.3301 40.623 72.2911 40.6619C72.1276 40.8253 72.0108 40.9887 71.9408 41.1521C71.8629 41.3154 71.8006 41.4399 71.7539 41.5255C71.676 41.6811 71.5553 41.8172 71.3918 41.9339C71.2361 42.0429 71.0492 42.1479 70.8312 42.249C70.621 42.3502 70.3952 42.4474 70.1538 42.5408C69.9125 42.6419 69.6789 42.7547 69.4531 42.8792C69.2195 42.9959 69.0015 43.136 68.799 43.2993C68.5966 43.4549 68.4292 43.6417 68.2968 43.8595C68.2579 43.9062 68.2229 43.949 68.1917 43.9879C68.1528 44.0268 68.1099 44.0462 68.0632 44.0462C67.9854 44.0462 67.9464 43.9918 67.9464 43.8828Z" fill="#31C0CC"/>
<path d="M46.445 68.4656C46.4061 68.6756 46.3399 68.9129 46.2465 69.1774C46.1453 69.4497 46.0402 69.7065 45.9312 69.9476C45.8222 70.1888 45.7209 70.3911 45.6275 70.5545C45.5341 70.7179 45.4718 70.7996 45.4406 70.7996C45.3394 70.7996 45.2109 70.7646 45.0552 70.6945C44.8917 70.6323 44.7165 70.5467 44.5296 70.4378C44.335 70.3367 44.1403 70.22 43.9457 70.0877C43.751 69.9554 43.5719 69.8193 43.4084 69.6792C43.2371 69.547 43.0931 69.4147 42.9763 69.2825C42.8595 69.158 42.7855 69.0491 42.7544 68.9557C42.7544 68.909 42.8011 68.7729 42.8945 68.5472C42.9802 68.3216 43.0814 68.0766 43.1982 67.812C43.315 67.5475 43.4357 67.3024 43.5603 67.0768C43.6848 66.8512 43.7822 66.715 43.8522 66.6684C43.9768 66.8084 44.1403 66.964 44.3428 67.1352C44.5452 67.3141 44.7671 67.4853 45.0085 67.6487C45.2499 67.8198 45.4951 67.9793 45.7443 68.1271C45.9934 68.2749 46.227 68.3878 46.445 68.4656ZM47.6597 65.9448C47.9789 66.3416 48.3721 66.6956 48.8393 67.0068C49.3143 67.318 49.7931 67.5631 50.2758 67.742C50.1123 68.1699 49.9644 68.5278 49.832 68.8157C49.7075 69.1035 49.5985 69.333 49.505 69.5042C49.4116 69.6831 49.3337 69.8115 49.2714 69.8893C49.2169 69.9671 49.178 70.006 49.1546 70.006C49.0923 70.006 48.995 69.9788 48.8627 69.9243C48.7303 69.8776 48.5785 69.8076 48.4072 69.7143C48.2359 69.6209 48.0529 69.512 47.8582 69.3875C47.6714 69.2708 47.4923 69.1424 47.321 69.0024C47.1497 68.8701 46.9979 68.7301 46.8655 68.5823C46.7331 68.4344 46.6397 68.2866 46.5852 68.1388C46.5852 68.0843 46.6202 67.9599 46.6903 67.7654C46.7682 67.5786 46.8577 67.3686 46.9589 67.1352C47.0679 66.9018 47.1847 66.6723 47.3093 66.4466C47.4339 66.2288 47.5507 66.0615 47.6597 65.9448Z" fill="#31C0CC"/>
<path d="M82.0901 49.0838C82.0511 49.2939 81.985 49.5351 81.8915 49.8074C81.7903 50.0719 81.6852 50.3248 81.5762 50.5659C81.4672 50.8071 81.3659 51.0094 81.2725 51.1728C81.1791 51.3362 81.1168 51.4179 81.0856 51.4179C80.9844 51.4179 80.856 51.3867 80.7002 51.3245C80.5367 51.2545 80.3615 51.1689 80.1747 51.0677C79.98 50.9588 79.7854 50.8382 79.5907 50.706C79.396 50.5737 79.217 50.4415 79.0535 50.3092C78.8822 50.1692 78.7381 50.0369 78.6213 49.9124C78.5045 49.7802 78.4306 49.6673 78.3994 49.574C78.3994 49.5273 78.4461 49.3912 78.5396 49.1655C78.6252 48.9399 78.7264 48.6948 78.8432 48.4303C78.96 48.1658 79.0807 47.9207 79.2053 47.6951C79.3299 47.4695 79.4272 47.3333 79.4973 47.2867C79.6218 47.4267 79.7854 47.5862 79.9878 47.7651C80.1902 47.9363 80.4121 48.1074 80.6535 48.2786C80.8949 48.442 81.1402 48.5976 81.3893 48.7454C81.6385 48.8932 81.8721 49.006 82.0901 49.0838ZM83.3047 46.5631C83.6239 46.9599 84.0171 47.3139 84.4843 47.6251C84.9593 47.9363 85.4381 48.1814 85.9209 48.3603C85.7574 48.7882 85.6094 49.1461 85.4771 49.4339C85.3525 49.7218 85.2435 49.9552 85.15 50.1341C85.0566 50.3053 84.9787 50.4298 84.9164 50.5076C84.8619 50.5854 84.823 50.6243 84.7997 50.6243C84.7374 50.6243 84.64 50.6009 84.5077 50.5543C84.3753 50.4998 84.2235 50.4259 84.0522 50.3325C83.8809 50.2392 83.6979 50.1341 83.5033 50.0174C83.3164 49.893 83.1373 49.7646 82.966 49.6323C82.7947 49.4923 82.6429 49.3484 82.5105 49.2005C82.3782 49.0449 82.2847 48.8971 82.2302 48.7571C82.2302 48.7026 82.2653 48.582 82.3353 48.3953C82.4132 48.2008 82.5027 47.9869 82.604 47.7535C82.713 47.5201 82.8298 47.2944 82.9543 47.0766C83.0789 46.851 83.1957 46.6798 83.3047 46.5631Z" fill="#31C0CC"/>
<path d="M57.4746 80.8095L56.7588 80.4874C57.7371 78.0775 58.8585 76.1805 60.1231 74.7966C61.3878 73.4127 62.8194 72.7207 64.4181 72.7207C64.9669 72.7207 65.5753 72.7804 66.2434 72.8997C66.9354 73.019 67.52 73.0786 67.9972 73.0786C68.7846 73.0786 69.1783 73.4604 69.1783 74.224C69.1783 75.0114 68.9874 75.751 68.6056 76.443C68.2238 77.135 67.7108 77.6838 67.0666 78.0894C66.4462 78.5189 65.7543 78.7336 64.9907 78.7336C64.4658 78.7336 63.8931 78.6262 63.2728 78.4115C62.6762 78.2206 62.1036 78.1252 61.5548 78.1252C60.6719 78.1252 59.9323 78.3519 59.3357 78.8052C58.7631 79.2586 58.1427 79.9267 57.4746 80.8095Z" fill="white"/>
<path d="M65.0075 78.7456C64.2201 78.7456 63.8264 78.3638 63.8264 77.6002C63.8264 76.8844 64.0053 76.1805 64.3633 75.4886C64.7212 74.7966 65.2222 74.224 65.8665 73.7706C66.5107 73.3173 67.2743 73.0906 68.1571 73.0906C68.7298 73.0906 69.2547 73.0309 69.7319 72.9116C70.233 72.7923 70.7102 72.6253 71.1635 72.4106C70.7818 71.5993 70.3761 70.9908 69.9466 70.5852C69.5172 70.1557 68.9564 69.941 68.2645 69.941C68.169 69.941 68.0736 69.941 67.9781 69.941C67.9066 69.941 67.835 69.9529 67.7634 69.9768L67.5487 69.6189C68.0736 68.4974 68.8491 67.6623 69.8751 67.1135C70.9249 66.5647 72.0106 66.2903 73.132 66.2903C73.8001 66.2903 74.4324 66.3857 75.029 66.5766C75.6255 66.7675 76.1146 67.0658 76.4964 67.4714C76.902 67.8532 77.1048 68.3542 77.1048 68.9746C77.1048 69.5234 76.9497 70.0603 76.6396 70.5852C76.3532 71.0863 75.8641 71.6589 75.1721 72.3032C75.3869 72.3748 75.6851 72.4106 76.0669 72.4106C76.3294 72.4106 76.5322 72.5299 76.6754 72.7685C76.8185 72.9832 76.8901 73.2337 76.8901 73.5201C76.8901 74.2598 76.7231 74.7728 76.389 75.0591C76.0788 75.3454 75.6136 75.4886 74.9932 75.4886C74.1581 75.4886 73.4303 75.25 72.8099 74.7728L72.7383 74.737C71.8555 75.5482 71.0323 76.264 70.2688 76.8844C69.5291 77.4809 68.7417 77.9462 67.9066 78.2803C67.0953 78.5905 66.1289 78.7456 65.0075 78.7456Z" fill="white"/>
<path d="M74.9688 75.5244C74.8018 75.5244 74.6229 75.4409 74.432 75.2738C74.2172 75.0829 74.1099 74.7966 74.1099 74.4148C74.1099 73.7706 74.3127 73.2934 74.7183 72.9832C75.1239 72.6492 75.5176 72.4821 75.8994 72.4821C78.6911 72.4821 81.1249 71.0505 83.2008 68.1872C83.8689 67.2805 84.4057 66.5647 84.8114 66.0398C85.2409 65.5148 85.6226 65.133 85.9567 64.8944C86.2907 64.632 86.6606 64.465 87.0662 64.3934C87.2332 64.0832 87.4599 63.7372 87.7462 63.3554C88.0325 62.9498 88.3189 62.58 88.6052 62.2459C88.8915 61.888 89.1301 61.6255 89.321 61.4585H89.7505C90.2277 62.6277 90.7049 63.5225 91.1822 64.1428C91.5162 64.5485 91.7429 64.8706 91.8622 65.1092C91.9815 65.3478 92.0411 65.6103 92.0411 65.8966C92.0411 66.2784 91.9338 66.7198 91.719 67.2209C91.5043 67.6981 91.218 68.1634 90.86 68.6167C90.5021 69.0701 90.1204 69.4518 89.7147 69.762C89.3091 70.0483 88.9154 70.1915 88.5336 70.1915C88.1996 70.1915 87.8894 70.1319 87.6031 70.0126C87.0304 69.7501 86.5055 69.5592 86.0283 69.4399C85.5749 69.2967 85.1693 69.2252 84.8114 69.2252C84.5728 69.2252 84.2029 69.4518 83.7019 69.9052C83.2008 70.3347 82.5446 70.967 81.7333 71.8021C80.5403 73.0429 79.4308 73.9734 78.4048 74.5938C77.4026 75.2142 76.2573 75.5244 74.9688 75.5244Z" fill="white"/>
<path d="M103.991 77.5525C102.225 77.5525 100.925 76.8844 100.09 75.5482C99.2784 74.1882 98.8727 72.1958 98.8727 69.5711C98.8727 67.5907 98.9085 65.658 98.9801 63.773C99.0756 61.888 99.1829 60.1581 99.3022 58.5833C99.4215 56.9846 99.5528 55.6127 99.6959 54.4673C99.8391 53.2982 99.9703 52.4511 100.09 51.9262C100.376 50.7331 100.805 49.4327 101.378 48.025L102.13 48.2397C101.867 49.8622 101.664 51.9381 101.521 54.4673C101.378 56.9966 101.307 59.9672 101.307 63.3793C101.307 64.286 101.33 65.2404 101.378 66.2426C101.45 67.2209 101.617 68.1395 101.879 68.9985C102.166 69.8575 102.607 70.5613 103.203 71.1101C103.824 71.6351 104.671 71.8975 105.745 71.8975C106.771 71.8975 107.284 72.5776 107.284 73.9376C107.284 74.8443 107.105 75.5602 106.747 76.0851C106.389 76.61 105.947 76.9918 105.423 77.2304C104.921 77.4451 104.444 77.5525 103.991 77.5525Z" fill="white"/>
<path d="M103.944 77.5525C102.942 77.5525 102.441 76.8725 102.441 75.5124C102.441 74.7728 102.56 74.1882 102.799 73.7587C103.014 73.3053 103.264 72.9593 103.55 72.7207C103.813 72.4821 104.016 72.339 104.159 72.2912C104.183 71.9572 104.278 71.4561 104.445 70.788C104.636 70.1199 104.911 69.3564 105.268 68.4974C105.626 67.6384 106.056 66.7794 106.557 65.9205C107.273 64.7274 108 63.8804 108.74 63.3793C109.48 62.8544 110.363 62.5919 111.389 62.5919C112.677 62.5919 114.192 62.914 115.934 63.5582C116.769 63.8684 117.485 64.119 118.082 64.3099C118.678 64.4769 119.131 64.6081 119.442 64.7036L119.549 65.1331C117.974 67.5668 116.423 69.7262 114.896 71.6112C113.369 73.4723 111.723 74.9278 109.957 75.9777C108.215 77.0276 106.211 77.5525 103.944 77.5525ZM105.447 71.8975H105.734C107.141 71.8975 108.513 71.7425 109.85 71.4323C111.186 71.0982 112.403 70.6091 113.5 69.9648C114.622 69.2967 115.517 68.4855 116.185 67.531C115.087 67.1254 114.073 66.8152 113.142 66.6005C112.236 66.3619 111.424 66.2426 110.709 66.2426C109.635 66.2426 108.74 66.5289 108.024 67.1016C107.309 67.6742 106.748 68.39 106.342 69.249C105.937 70.108 105.638 70.9908 105.447 71.8975Z" fill="white"/>
<path d="M107.838 86.4047C107.337 85.8798 106.836 85.3906 106.335 84.9373C105.834 84.5078 105.345 84.1021 104.868 83.7204V83.434C105.082 83.1239 105.405 82.7182 105.834 82.2171C106.24 81.7399 106.657 81.2747 107.087 80.8213C107.492 80.3918 107.791 80.1174 107.981 79.9981H108.304C109.234 80.5946 109.926 81.1196 110.379 81.5729C110.857 82.0501 111.095 82.5273 111.095 83.0046C111.095 83.8635 110.105 84.9969 108.125 86.4047H107.838Z" fill="white"/>
<path d="M57.2539 68.4614C56.7289 67.9365 56.2279 67.4593 55.7506 67.0298C55.2496 66.6003 54.7604 66.1946 54.2832 65.8129V65.4908C54.5218 65.1567 54.8559 64.7511 55.2854 64.2739C55.691 63.7728 56.0966 63.3075 56.5022 62.878C56.9079 62.4485 57.2061 62.1741 57.397 62.0548H57.7191C58.2918 62.4127 58.7929 62.7587 59.2224 63.0928C59.628 63.4029 59.9382 63.7251 60.1529 64.0591C60.4154 63.7251 60.7136 63.3791 61.0477 63.0212C61.3817 62.6394 61.7039 62.3054 62.0141 62.019C62.3242 61.7088 62.5509 61.506 62.6941 61.4106H62.9804C63.9348 62.0071 64.6387 62.544 65.0921 63.0212C65.5693 63.4745 65.8079 63.9398 65.8079 64.417C65.8079 65.3237 64.8535 66.4571 62.9446 67.8172H62.6225C62.2169 67.4115 61.8232 67.0417 61.4414 66.7076C61.0596 66.3497 60.7017 66.0276 60.3677 65.7413C59.9859 66.5048 59.0553 67.4115 57.576 68.4614H57.2539Z" fill="white"/>
<path fill-rule="evenodd" clip-rule="evenodd" d="M29.9325 80.4851L19.9666 83.5035L27.7038 85.1272C36.5567 86.9847 48.3394 91.5052 53.7817 95.1299L57.5004 97.6079L58.0704 92.7075C58.7086 87.221 57.807 85.7616 51.6296 82.2893C42.896 77.3804 40.7677 77.2033 29.9325 80.4851ZM74.7301 82.792C63.7368 84.4151 60.8441 86.4058 60.0927 92.8662L59.5317 97.689L65.0984 95.8848C72.5493 93.47 81.7956 92.2959 91.4422 92.5401L99.3907 92.7421L90.3134 87.6034C85.32 84.7771 81.0101 82.3558 80.7359 82.2219C80.4606 82.0888 77.7584 82.345 74.7301 82.792ZM7.98965 89.0389C2.00414 89.5399 1.78457 89.6644 1.084 92.9329C0.391785 96.1645 0.485565 96.2969 3.27447 96.0313C4.8767 95.8798 9.67205 95.4088 13.9301 94.9864C28.2768 93.5615 46.3034 97.912 59.3735 105.953C62.6662 107.979 65.1353 109.155 64.86 108.566C63.9994 106.727 50.1326 98.0716 43.0167 94.931C34.6653 91.2446 17.0466 88.2817 7.98965 89.0389Z" fill="#31C0CC"/>
<path fill-rule="evenodd" clip-rule="evenodd" d="M119.849 16.3592C118.611 18.6271 118.712 19.5152 120.492 21.9903C121.654 23.6071 123.044 25.0359 123.58 25.1653C124.932 25.492 130.499 21.9824 130.835 20.5918C130.986 19.965 130.056 20.2588 128.768 21.2451C125.384 23.8352 121.571 21.6679 121.425 17.0695L121.318 13.6673L119.849 16.3592ZM92.0562 16.4781C87.7112 16.7252 75.7074 20.0391 75.4608 21.0601C75.3394 21.5627 76.1946 21.9069 77.3614 21.8247C78.6257 21.7359 79.3746 22.1233 79.2147 22.7855C79.0673 23.3956 78.5058 23.4498 77.9661 22.9043C77.3064 22.2381 77.0617 22.5002 77.219 23.7053C77.5095 25.9429 76.0783 25.6952 74.908 23.3057C74.2264 21.9145 73.6593 21.6982 72.3604 22.3357C71.4414 22.7865 70.7812 23.8578 70.8925 24.718C71.0297 25.7733 70.6668 25.985 69.773 25.3686C69.0463 24.8677 68.1194 24.7857 67.7137 25.1873C67.3081 25.5889 67.4787 26.2768 68.0931 26.7162C68.7786 27.2061 68.5505 27.3868 67.5016 27.1835C65.4764 26.7924 62.5217 29.7741 63.1211 31.6054C63.3727 32.3723 63.1688 32.5129 62.6164 31.955C62.1069 31.4398 61.0152 31.7768 60.1889 32.7027C57.5549 35.6565 58.2572 35.6843 64.0105 32.8528C70.9057 29.4596 79.6788 27.3523 85.1307 27.7805C88.8961 28.0767 91.3741 26.4556 91.6803 23.4955C91.7216 23.0956 92.3546 23.1817 93.0857 23.6858C94.8476 24.8998 94.4034 26.4624 92.4311 25.986C91.573 25.7788 90.9208 26.2085 90.9828 26.94C91.0515 27.7524 93.1935 28.8601 96.4839 29.7852C99.4482 30.618 103.647 32.4343 105.816 33.8207C108.738 35.6883 110.012 36.0909 110.735 35.3739C112.229 33.8958 111.009 30.7904 108.398 29.4211C107.006 28.6907 106.238 27.5082 106.502 26.4964C106.918 24.8979 106.979 24.9136 107.532 26.765C107.855 27.8466 109.034 28.9532 110.152 29.2233C111.851 29.6335 112.232 29.2104 112.466 26.6531C112.643 24.7162 113.177 23.6956 113.918 23.8748C114.935 24.1204 114.611 26.1844 113.049 29.4013C111.973 31.6155 112.368 32.8875 114.274 33.3477C115.397 33.619 116.703 34.5217 117.178 35.353C118.349 37.4037 118.042 40.516 116.701 40.1922C116.103 40.0477 115.94 39.6077 116.337 39.2145C117.647 37.9183 115.525 34.5396 113.562 34.7956C110.82 35.1524 110.701 37.605 113.339 39.4113C114.607 40.2799 117.311 43.7511 119.347 47.1247C121.383 50.4972 123.502 53.1086 124.056 52.9275C124.61 52.7453 124.811 53.381 124.501 54.3389C124.193 55.2979 124.404 58.2922 124.971 60.994C125.537 63.6956 125.942 66.7752 125.869 67.8371C125.722 69.94 129.968 63.1318 128.435 63.2526C121.232 62.2106 134.635 67.3188 129.219 68.6463C123.598 70.0244 125.755 71.727 131.763 70.5614C134.911 69.951 123.895 74.795 127.318 74.7364C135.669 74.5943 125.56 69.0303 126.287 70.2406C127.109 71.6064 124.722 82.8008 123.075 85.5381C121.766 87.7126 121.79 87.7424 123.609 86.1886C126.464 83.7514 129.551 78.2963 129.372 76.0062C129.24 74.3432 129.338 74.2918 129.918 75.7178C130.523 77.2052 130.689 77.1953 131.077 75.6442C131.475 74.0537 123.524 77.4281 128.654 78.9779C131.861 79.9477 130.456 73.4942 130.55 73.0978C130.827 71.9411 135.002 75.4969 130.719 74.8849C127.314 74.3982 131.199 72.1785 132.279 70.9676C132.968 70.1953 133.318 69.216 133.059 68.7905C132.242 67.4532 129.171 67.1369 128.401 68.3112C127.996 68.9309 127.36 68.9734 126.99 68.4062C126.608 67.8228 127.193 67.0108 128.343 66.5323C130.962 65.4418 131.652 62.5796 129.427 62.0339C128.48 61.8008 127.247 60.0199 126.687 58.0761C125.997 55.6773 126.031 55.0254 126.794 56.0483C127.679 57.2362 128.119 57.2664 128.859 56.1935C130.237 54.193 129.603 51.4428 127.819 51.6753C126.454 51.8535 121.068 48.0806 121.302 47.1109C121.469 46.418 125.109 48.722 125.439 49.73C125.953 51.2986 127.066 51.2252 130.655 49.3887L133.997 47.6781L131.088 41.4099C127.787 34.2961 126.053 32.2334 124.59 33.6815C123.879 34.3849 123.351 34.1393 122.695 32.8003C121.906 31.1913 121.46 31.0585 119.364 31.8081C117.356 32.5256 116.79 32.4004 116.04 31.0719C114.752 28.7915 115.029 28.5414 117.567 29.6926C118.798 30.2507 120.246 30.273 120.784 29.7405C121.464 29.0674 122.025 29.4093 122.632 30.8702C123.112 32.0228 123.88 32.7371 124.339 32.4568C125.688 31.6332 124.782 30.2192 120.71 26.7866C116.782 23.4765 110.059 19.8938 111.026 21.6263C111.66 22.7619 109.21 24.8236 107.671 24.4519C106.979 24.2849 107.12 23.8829 108.077 23.2983C110.504 21.8151 110.324 19.8777 107.701 19.244C106.168 18.8737 105.103 19.2079 104.881 20.1274C104.684 20.9404 104.094 21.5019 103.569 21.3751C103.045 21.2485 103.031 20.5412 103.539 19.8033C104.239 18.7885 103.719 18.2822 101.402 17.7228C98.164 16.9406 97.3919 17.6292 98.8444 20.0076C99.3308 20.8041 99.2834 21.7084 98.7379 22.0158C98.1931 22.3244 97.6832 21.9749 97.6056 21.2385C97.3993 19.304 95.3865 19.0984 92.1342 20.6795C85.6408 23.838 85.8221 23.6659 87.6546 24.9502C88.962 25.8657 88.6128 25.9775 86.134 25.4351C84.3645 25.0473 82.8084 25.1742 82.6775 25.7163C82.5466 26.2583 82.0099 26.598 81.4848 26.4712C80.9607 26.3446 80.947 25.6373 81.4547 24.8994C81.9634 24.1618 83.0107 23.7107 83.7821 23.897C85.7564 24.3739 87.216 21.8707 86.1873 19.7709C85.2139 17.7835 86.7181 17.7546 87.9292 19.7379C88.4792 20.6384 89.9467 20.6017 92.8158 19.6144C98.9201 17.5143 98.5798 16.1086 92.0562 16.4781ZM80.8297 21.0979C80.5024 22.453 80.592 23.0619 81.0287 22.4498C81.4661 21.8388 81.7339 20.7301 81.6238 19.9859C81.5144 19.243 81.157 19.7428 80.8297 21.0979ZM95.1346 25.9433C94.9139 26.8569 95.505 27.7642 96.4655 27.9878C97.4518 28.2167 97.8469 27.971 97.3857 27.4153C96.9415 26.8804 96.3422 25.9597 96.0546 25.3718C95.7673 24.783 95.3526 25.0406 95.1346 25.9433ZM105.514 30.7971C105.284 31.9566 105.461 32.2466 105.965 31.537C106.422 30.8942 106.592 30.0352 106.343 29.629C106.095 29.2228 105.722 29.7481 105.514 30.7971ZM120.942 36.5624C120.051 37.1858 119.73 37.7946 120.226 37.9145C120.723 38.0344 121.842 37.6007 122.713 36.9507C124.753 35.4283 123.083 35.0614 120.942 36.5624ZM126.594 38.3564C125.687 38.665 124.644 38.6124 124.276 38.2409C123.908 37.8693 123.483 38.0825 123.33 38.7142C123.173 39.3657 123.803 39.7651 124.787 39.6376C126.016 39.4767 126.256 39.7964 125.61 40.7346C125.109 41.4616 125.078 42.4398 125.541 42.9082C126.089 43.4619 125.862 44.1486 124.894 44.8712C123.119 46.196 123.925 46.5283 126.984 45.7327C128.636 45.3026 129.53 45.5853 130.468 46.8351C131.53 48.2505 131.709 48.2643 131.604 46.9206C131.534 46.0433 130.279 44.8829 128.814 44.3412C126.425 43.4585 126.282 43.0746 127.422 40.6152C128.847 37.5435 128.863 37.5871 126.594 38.3564ZM73.5208 27.1886C72.2765 27.7297 71.7024 28.2805 72.2442 28.4114C72.7861 28.5423 74.2469 28.2056 75.4911 27.6645C76.7347 27.1221 77.3095 26.5725 76.7676 26.4416C76.2258 26.3108 74.7643 26.6462 73.5208 27.1886ZM131.109 50.2764C130.07 51.0527 129.937 51.8886 130.601 53.4841C131.362 55.3126 131.232 55.806 129.758 56.7058C128.801 57.2914 128.063 58.3124 128.116 58.9762C128.263 60.8015 131.83 61.8759 133.531 60.6063C135.271 59.3077 135.153 55.8061 133.389 56.3844C132.675 56.6186 132.61 56.3683 133.227 55.7589C134.456 54.5404 134.559 49.7204 133.361 49.431C132.896 49.3187 131.882 49.6987 131.109 50.2764ZM132.948 61.7454C131.775 62.9066 131.973 66.8271 133.22 67.1281C134.367 67.4054 135.118 64.4128 134.418 62.3517C134.049 61.2676 133.613 61.0871 132.948 61.7454Z" fill="#31C0CC"/>
</svg>
